<svg id="955c72a1-8dd0-4ced-b925-6801cb43460a" data-name="Layer 5" xmlns="http://www.w3.org/2000/svg" viewBox="0 0 212 212"><title>logo_coin_bw</title><g id="187c181f-5582-4e7c-9745-78b0552630c2" data-name="Layer 4"><path d="M111,5A106,106,0,1,0,217,111,106,106,0,0,0,111,5Zm13.79,109.14c6.66,10.61,10,18.82,18.39,27,8.63,8.45,18.47,16.85,23,18.93,3.87,1.79,11.33,4.7,12.87,10.82.63,2.5.37,6-1.84,8.11-2.57,2.47-6.88,2.09-11.95.91a88.9,88.9,0,0,1-13.79-4.51c-9.63-5.23-24.11-7.87-40.45-9-16.34,1.15-30.82,3.79-40.45,9A88.9,88.9,0,0,1,56.76,180c-5.07,1.18-9.38,1.56-11.95-.91-2.21-2.11-2.47-5.61-1.84-8.11,1.54-6.12,9-9,12.87-10.82,4.51-2.08,14.35-10.48,23-18.93,8.41-8.22,11.73-16.43,18.39-27,1.37-2.19,4.45-7.06,2.76-11.72C99,99.78,96.4,97,93.53,97c-2,0-3.48,1.51-4.59,2.7-2,2.11-3.8,4.19-5.52,6.31A91.58,91.58,0,0,0,63.19,84.4,92.77,92.77,0,0,0,41.13,71.78a17.06,17.06,0,0,1,9.19-8.12c3.1-1.06,7.06-1.21,12.87.91,8.62,3.13,14.23,8.8,23,15.32,4.43,3.3,8.16,5.52,11.95,4.51,4.46-1.2,8.44-6.73,7.35-11.72a9.09,9.09,0,0,0-3.67-5.41c-3.47-2.44-8.3-1-10.12-3.61-1.43-2,.4-4.42-.92-7.21a10.16,10.16,0,0,0-3.67-3.6A12.51,12.51,0,0,0,80.66,51l6.44-9.91a31.26,31.26,0,0,0,6.43,4.51A33.14,33.14,0,0,0,111,49.24a33.14,33.14,0,0,0,17.47-3.6,31.26,31.26,0,0,0,6.43-4.51L141.34,51a12.51,12.51,0,0,0-6.44,1.81,10.16,10.16,0,0,0-3.67,3.6c-1.32,2.79.51,5.17-.92,7.21-1.82,2.59-6.65,1.17-10.12,3.61a9.09,9.09,0,0,0-3.67,5.41c-1.09,5,2.89,10.52,7.35,11.72,3.79,1,7.52-1.21,11.95-4.51,8.76-6.52,14.37-12.19,23-15.32,5.81-2.12,9.77-2,12.87-.91a17.06,17.06,0,0,1,9.19,8.12A92.77,92.77,0,0,0,158.81,84.4,91.58,91.58,0,0,0,138.58,106c-1.72-2.12-3.54-4.2-5.52-6.31-1.11-1.19-2.56-2.66-4.59-2.7-2.87-.07-5.48,2.76-6.44,5.4C120.34,107.08,123.42,112,124.79,114.14Z" transform="translate(-5 -5)" style="fill:#231f20"/></g></svg>