<svg id="3e1bd25e-658d-489d-8d06-d6f2b587e34e" data-name="Layer 2" xmlns="http://www.w3.org/2000/svg" viewBox="0 0 186.16 183.01"><title>logo_minimal_bw</title><circle cx="92.87" cy="91.51" r="90" style="fill:none"/><path d="M200.27,184.17,190,197.85a4.26,4.26,0,0,1-3.7,1.57c-16.5-1.14-43-11.8-43-11.8l-25.63-8.43a59.46,59.46,0,0,1-5.53-2.28,4.28,4.28,0,0,0-1.26-.34,4.2,4.2,0,0,0-1.26.34,59.46,59.46,0,0,1-5.53,2.28l-25.64,8.43s-26.48,10.66-43,11.8a4.28,4.28,0,0,1-3.71-1.57L21.55,184.17c-1.56-2.07-.11-4.82,2.74-5.21,10.08-1.4,19.6-3.57,23.35-7.5l40.79-42.4a3.06,3.06,0,0,0,.46-3.76,2.64,2.64,0,0,0-.45-.56L48.68,83C45,79.1,34.9,76.82,25.06,75.56c-2.86-.36-4.34-3.12-2.79-5.21L32.51,56.59A4.24,4.24,0,0,1,36.2,55l66.35,23.26a8.55,8.55,0,0,1-.09-1.25V73.54a8.43,8.43,0,0,0-3.84-7.08L67.42,46.11c-4.42-2.67-6.66-8.48-7.74-14.34a7.12,7.12,0,0,1,4-7.77l1.66-.77a7.15,7.15,0,0,1,9.68,4,17.1,17.1,0,0,0,1.1,2.4A7.06,7.06,0,0,0,81,33.16l27.54,5a8.56,8.56,0,0,0,1.51.13h1.65a8.14,8.14,0,0,0,1.48-.13l27.56-5a7.08,7.08,0,0,0,4.93-3.49,17.1,17.1,0,0,0,1.1-2.4,7.15,7.15,0,0,1,9.68-4l1.65.77a7.11,7.11,0,0,1,4,7.77c-1.08,5.86-3.32,11.67-7.74,14.34L123.2,66.46a8.43,8.43,0,0,0-3.84,7.08V77a8.55,8.55,0,0,1-.09,1.25L185.62,55a4.25,4.25,0,0,1,3.69,1.58l10.23,13.76c1.56,2.09.08,4.85-2.78,5.21-9.84,1.26-19.91,3.54-23.62,7.42l-39.76,41.76a2.36,2.36,0,0,0-.45.56,3,3,0,0,0,.46,3.76l40.79,42.4c3.75,3.93,13.27,6.1,23.35,7.5C200.38,179.35,201.83,182.1,200.27,184.17Z" transform="translate(-17.83 -19.49)" style="fill:#231f20;stroke:#231f20;stroke-linecap:round;stroke-linejoin:round;stroke-width:6.155907126323393px"/></svg>