<svg id="702b0bae-77ee-467d-8c64-f09b991642f6" data-name="Layer 1" xmlns="http://www.w3.org/2000/svg" viewBox="0 0 222 222"><title>logo_full_bw</title><path d="M166.89,125.8,165,122.48l-.15.09a25.32,25.32,0,0,0,2.07,3.23l4.41,7.64,18.32,31.73-42.69,24.64-21-36.28a45.42,45.42,0,0,1-30.35,0L74.69,189.81,32,165.17l18.27-31.64,5.54-9.6a24.57,24.57,0,1,1,0-25.86l.79,1.37c-.25-.47-.51-.92-.79-1.37l-5.54-9.6L32,56.83l42.7-24.64L95.63,68.47a45.42,45.42,0,0,1,30.35,0l21-36.28,42.69,24.64L171.3,88.56l-4.41,7.64a25.32,25.32,0,0,0-2.07,3.23l.15.09,1.92-3.32a24.56,24.56,0,1,1,19.59,39.36,24.46,24.46,0,0,1-13.76-4.22A24.74,24.74,0,0,1,166.89,125.8Z" transform="translate(0.29)" style="fill:none;stroke:#231f20;stroke-width:2.940612588677318px"/><circle cx="111" cy="111" r="44.85" style="fill:none;stroke:#231f20;stroke-width:2.940612588677318px"/><path d="M221.7,111A111,111,0,1,1,110.7,0,111,111,0,0,1,221.7,111Z" transform="translate(0.29)" style="fill:none"/><path d="M69,42.72,83.62,68l-25.3,14.6-14.6-25.3L69,42.72m.47-1.79-1.13.66L43.07,56.19l-1.13.66L42.59,58l14.6,25.29.66,1.14L59,83.75l25.29-14.6,1.14-.66-.66-1.13L70.15,42.07l-.66-1.14Z" transform="translate(0.29)" style="fill:#231f20"/><path d="M152.6,42.72l25.29,14.6-14.6,25.3L138,68l14.61-25.3m-.48-1.79-.66,1.14-14.6,25.29-.65,1.13,1.13.66,25.29,14.6,1.14.66.65-1.14L179,58l.66-1.13-1.14-.66-25.29-14.6-1.13-.66Z" transform="translate(0.29)" style="fill:#231f20"/><path d="M58.32,139.53l25.3,14.61L69,179.43l-25.3-14.6,14.6-25.3m-.47-1.78-.66,1.13-14.6,25.29-.65,1.13,1.13.66,25.29,14.6,1.13.66.66-1.14,14.6-25.29.66-1.13L84.27,153,59,138.4l-1.13-.65Z" transform="translate(0.29)" style="fill:#231f20"/><path d="M163.29,139.53l14.6,25.3-25.29,14.6L138,154.14l25.3-14.61m.48-1.78-1.14.65L137.34,153l-1.13.66.65,1.13,14.6,25.29.66,1.14,1.13-.66L178.54,166l1.14-.66-.66-1.13-14.6-25.29-.65-1.13Z" transform="translate(0.29)" style="fill:#231f20"/><circle cx="35.8" cy="111" r="14.65" style="fill:none;stroke:#231f20;stroke-width:1.3071200847625732px"/><circle cx="187" cy="111" r="14.65" style="fill:none;stroke:#231f20;stroke-width:1.3071200847625732px"/><path d="M139.27,134.3,136,138.66a1.37,1.37,0,0,1-1.18.5c-5.25-.37-13.69-3.76-13.69-3.76L113,132.72a18.1,18.1,0,0,1-1.76-.73,1.4,1.4,0,0,0-.4-.11,1.32,1.32,0,0,0-.4.11c-.58.26-1.16.53-1.76.73l-8.17,2.68s-8.43,3.39-13.68,3.76a1.39,1.39,0,0,1-1.19-.5l-3.26-4.36a1.06,1.06,0,0,1,.87-1.66c3.21-.44,6.24-1.14,7.44-2.39l13-13.5a1,1,0,0,0,.15-1.2c0-.06-.1-.12-.15-.18L91,102.08c-1.18-1.24-4.39-2-7.52-2.36a1.07,1.07,0,0,1-.89-1.67l3.26-4.38a1.34,1.34,0,0,1,1.17-.5l21.13,7.41a2.68,2.68,0,0,1,0-.4V99.07a2.69,2.69,0,0,0-1.23-2.26L97,90.34c-1.41-.85-2.12-2.71-2.47-4.57a2.28,2.28,0,0,1,1.27-2.48l.53-.24a2.27,2.27,0,0,1,3.08,1.29,6.69,6.69,0,0,0,.35.76,2.27,2.27,0,0,0,1.58,1.11l8.76,1.58a2.7,2.7,0,0,0,.49,0h.52a2.42,2.42,0,0,0,.47,0l8.78-1.58a2.25,2.25,0,0,0,1.57-1.11,5.31,5.31,0,0,0,.35-.76,2.27,2.27,0,0,1,3.08-1.29l.53.24a2.28,2.28,0,0,1,1.27,2.48c-.34,1.86-1.06,3.72-2.46,4.57l-9.94,6.47a2.71,2.71,0,0,0-1.22,2.26v1.11a2.69,2.69,0,0,1,0,.4l21.13-7.41a1.34,1.34,0,0,1,1.17.5L139,98.05a1.07,1.07,0,0,1-.88,1.67c-3.14.39-6.34,1.12-7.52,2.36L118,115.37a1.1,1.1,0,0,0-.14.18,1,1,0,0,0,.15,1.2l13,13.5c1.19,1.25,4.22,1.95,7.43,2.39A1.07,1.07,0,0,1,139.27,134.3Z" transform="translate(0.29)" style="fill:#231f20;stroke:#231f20;stroke-linecap:round;stroke-linejoin:round;stroke-width:1.9604084478468395px"/></svg>