<svg xmlns="http://www.w3.org/2000/svg" xmlns:xlink="http://www.w3.org/1999/xlink" viewBox="0 0 522 338.39"><defs><linearGradient id="48acf67e-1c02-47b7-a09f-7f679b4265b5" x1="417.06" y1="267.09" x2="417.06" y2="451.71" gradientUnits="userSpaceOnUse"><stop offset="0" stop-color="#39c4e2" stop-opacity="0.97"/><stop offset="1" stop-color="#007a68"/></linearGradient><linearGradient id="5577e4b2-bb2d-4263-8983-3a6a2f489bca" x1="261.18" y1="304.6" x2="685.36" y2="320.43" gradientUnits="userSpaceOnUse"><stop offset="0" stop-color="#41bfb4" stop-opacity="0.97"/><stop offset="1" stop-color="#fff" stop-opacity="0.97"/></linearGradient><linearGradient id="2023a376-97c6-435a-929d-1513effc1eb6" x1="261.53" y1="295.05" x2="685.72" y2="310.88" xlink:href="#5577e4b2-bb2d-4263-8983-3a6a2f489bca"/><linearGradient id="9a1f30b0-ce49-4722-b8b4-879d3df0e37d" x1="261.52" y1="295.53" x2="685.7" y2="311.36" xlink:href="#5577e4b2-bb2d-4263-8983-3a6a2f489bca"/><linearGradient id="276ec57a-8b7b-47be-b037-164dee6999f2" x1="261.68" y1="291.12" x2="685.87" y2="306.96" xlink:href="#5577e4b2-bb2d-4263-8983-3a6a2f489bca"/><linearGradient id="c7e1b1f3-04d7-4a3e-b3ac-d9719643e15d" x1="261.64" y1="292.34" x2="685.81" y2="308.17" xlink:href="#5577e4b2-bb2d-4263-8983-3a6a2f489bca"/><linearGradient id="7f65219a-24fd-4597-b585-d52d36778ffd" x1="361.8" y1="46.03" x2="385.12" y2="368.84" gradientUnits="userSpaceOnUse"><stop offset="0" stop-color="#e97fb3"/><stop offset="0.21" stop-color="#ad97c6"/><stop offset="0.49" stop-color="#64b4de"/><stop offset="0.73" stop-color="#2ecaef"/><stop offset="0.9" stop-color="#0dd7fa"/><stop offset="1" stop-color="#00dcfe"/></linearGradient><linearGradient id="1eaccf40-e2b5-4170-9e38-28242c3a5937" x1="516.44" y1="106.52" x2="487.21" y2="231.27" gradientTransform="translate(28.67 -78.54) rotate(9.09)" gradientUnits="userSpaceOnUse"><stop offset="0" stop-color="#e6a224"/><stop offset="0.35" stop-color="#e68349"/><stop offset="0.78" stop-color="#e56171"/><stop offset="1" stop-color="#e55480"/></linearGradient><linearGradient id="7177e724-2850-49f6-b79c-6b6d1688a13a" x1="298.55" y1="288.14" x2="295.59" y2="304.47" gradientUnits="userSpaceOnUse"><stop offset="0" stop-color="#b97335"/><stop offset="0.99" stop-color="#821823"/></linearGradient><linearGradient id="a363c92f-aed8-4476-bbaa-e681dec3bd09" x1="298.22" y1="286.95" x2="296.08" y2="298.76" xlink:href="#7177e724-2850-49f6-b79c-6b6d1688a13a"/><linearGradient id="cc223c19-9109-489a-9010-37533121cb1a" x1="295.95" y1="302.6" x2="297.18" y2="291.35" gradientUnits="userSpaceOnUse"><stop offset="0" stop-color="#916956"/><stop offset="1" stop-color="#4a3327"/></linearGradient><linearGradient id="bf15cd27-20b1-4fef-a5be-876fe12304b4" x1="288.4" y1="296.48" x2="304.81" y2="238.42" xlink:href="#cc223c19-9109-489a-9010-37533121cb1a"/><linearGradient id="7c15aa9e-977c-49e8-af7e-101cf7b64ed0" x1="290.83" y1="259.05" x2="301.96" y2="259.05" gradientUnits="userSpaceOnUse"><stop offset="0" stop-color="#212222"/><stop offset="0.03" stop-color="#2a2b2b"/><stop offset="0.39" stop-color="#848585"/><stop offset="0.68" stop-color="#c6c7c7"/><stop offset="0.89" stop-color="#efefef"/><stop offset="1" stop-color="#fff"/></linearGradient><linearGradient id="17b4d333-8c8f-474e-bd4d-6e28c9bc68de" x1="255.56" y1="194.11" x2="336.56" y2="194.11" gradientUnits="userSpaceOnUse"><stop offset="0" stop-color="#41bfb4" stop-opacity="0.97"/><stop offset="1" stop-color="#00a664"/></linearGradient><linearGradient id="81ebc1ff-bf9d-49ec-9c27-0aa45651ea42" x1="469.56" y1="281.15" x2="466.68" y2="297.04" xlink:href="#7177e724-2850-49f6-b79c-6b6d1688a13a"/><linearGradient id="ff4ed909-9cc1-4d09-9da4-3b96d91dae73" x1="469.24" y1="279.98" x2="467.15" y2="291.48" xlink:href="#7177e724-2850-49f6-b79c-6b6d1688a13a"/><linearGradient id="046323dd-f7f4-41ab-84c0-2409ee5ab542" x1="467.03" y1="295.21" x2="468.22" y2="284.27" xlink:href="#cc223c19-9109-489a-9010-37533121cb1a"/><linearGradient id="685d9423-00f2-4611-850f-650ee3ae8cfb" x1="459.69" y1="289.25" x2="475.65" y2="232.77" xlink:href="#cc223c19-9109-489a-9010-37533121cb1a"/><linearGradient id="85839080-1031-4d22-a9a0-e164292e47de" x1="462.05" y1="252.84" x2="472.88" y2="252.84" xlink:href="#7c15aa9e-977c-49e8-af7e-101cf7b64ed0"/><linearGradient id="3a0f863b-2146-4397-8ba4-84f456c2ac22" x1="427.73" y1="189.65" x2="506.54" y2="189.65" xlink:href="#48acf67e-1c02-47b7-a09f-7f679b4265b5"/><linearGradient id="e7aabfa8-2835-45ba-9084-c9792622f050" x1="536.22" y1="279.27" x2="534.34" y2="289.65" xlink:href="#7177e724-2850-49f6-b79c-6b6d1688a13a"/><linearGradient id="f2004712-9e97-4a22-8132-7e5ff11ee8df" x1="536.01" y1="278.52" x2="534.65" y2="286.02" xlink:href="#7177e724-2850-49f6-b79c-6b6d1688a13a"/><linearGradient id="80843098-7f1c-4a61-a75b-52091787ad20" x1="534.56" y1="288.45" x2="535.34" y2="281.31" xlink:href="#cc223c19-9109-489a-9010-37533121cb1a"/><linearGradient id="702ada09-897c-4f54-905b-0c9a38ce6ca5" x1="529.77" y1="284.57" x2="540.19" y2="247.7" xlink:href="#cc223c19-9109-489a-9010-37533121cb1a"/><linearGradient id="db0282f2-0065-4a7b-91ba-0114ec3a12b1" x1="531.32" y1="260.8" x2="538.38" y2="260.8" xlink:href="#7c15aa9e-977c-49e8-af7e-101cf7b64ed0"/><linearGradient id="35da743d-8314-44c2-a55f-aa22e75cbd7e" x1="508.92" y1="219.56" x2="560.35" y2="219.56" xlink:href="#17b4d333-8c8f-474e-bd4d-6e28c9bc68de"/><linearGradient id="f749a7f2-268c-4d35-a7d8-f401d936237c" x1="195.84" y1="195.45" x2="275.85" y2="195.45" gradientUnits="userSpaceOnUse"><stop offset="0" stop-color="#41bfb4" stop-opacity="0.97"/><stop offset="1" stop-color="#006845"/></linearGradient><linearGradient id="d3e1f3f5-dbd2-46ee-ac53-b3b070204ffb" x1="302.3" y1="194.03" x2="324.4" y2="193.31" gradientUnits="userSpaceOnUse"><stop offset="0" stop-color="#f9fbfc"/><stop offset="0.29" stop-color="#f1f6fd"/><stop offset="0.73" stop-color="#dde6fe"/><stop offset="1" stop-color="#cddbff"/></linearGradient><linearGradient id="8b5de2d7-ee54-4b0d-816d-1e68a0c79c17" x1="305.22" y1="209.51" x2="407.78" y2="209.51" gradientUnits="userSpaceOnUse"><stop offset="0" stop-color="#0e090f"/><stop offset="0.15" stop-color="#160e18"/><stop offset="0.69" stop-color="#2f1e33"/><stop offset="1" stop-color="#38243d"/></linearGradient><linearGradient id="9ae86b3e-5648-4735-80d3-eabe24ab62d5" x1="307.5" y1="185.74" x2="405.51" y2="185.74" gradientUnits="userSpaceOnUse"><stop offset="0" stop-color="#f4edf6"/><stop offset="1" stop-color="#c3e7ec" stop-opacity="0.97"/></linearGradient><linearGradient id="8b43056f-775c-4936-a521-564dc6079e24" x1="307.5" y1="189.01" x2="405.51" y2="189.01" xlink:href="#9ae86b3e-5648-4735-80d3-eabe24ab62d5"/><linearGradient id="5d8e3dc2-eb36-4548-8a41-9fc2c62493a5" x1="307.5" y1="192.28" x2="405.51" y2="192.28" xlink:href="#9ae86b3e-5648-4735-80d3-eabe24ab62d5"/><linearGradient id="0eaf9f60-f265-4cf5-874e-d69480064af6" x1="307.5" y1="195.56" x2="405.51" y2="195.56" xlink:href="#9ae86b3e-5648-4735-80d3-eabe24ab62d5"/><linearGradient id="531b61e5-121d-40e0-979a-4a732eaf1e97" x1="307.5" y1="198.83" x2="405.51" y2="198.83" xlink:href="#9ae86b3e-5648-4735-80d3-eabe24ab62d5"/><linearGradient id="ac2a57f3-ff4d-4b2e-965e-6b648b1eccf4" x1="307.5" y1="202.1" x2="405.51" y2="202.1" xlink:href="#9ae86b3e-5648-4735-80d3-eabe24ab62d5"/><linearGradient id="e7eadcc2-9e53-405e-b9dd-ac401e894a37" x1="307.5" y1="205.37" x2="405.51" y2="205.37" xlink:href="#9ae86b3e-5648-4735-80d3-eabe24ab62d5"/><linearGradient id="0891c3b6-08c2-48cb-af76-4d65ae93c172" x1="307.5" y1="208.65" x2="405.51" y2="208.65" xlink:href="#9ae86b3e-5648-4735-80d3-eabe24ab62d5"/><linearGradient id="93c4fed3-a594-4099-9da7-29dcf547f592" x1="307.5" y1="211.92" x2="405.51" y2="211.92" xlink:href="#9ae86b3e-5648-4735-80d3-eabe24ab62d5"/><linearGradient id="b84bc22d-ec79-42c4-8ca6-5d64161ae550" x1="307.5" y1="215.19" x2="405.51" y2="215.19" xlink:href="#9ae86b3e-5648-4735-80d3-eabe24ab62d5"/><linearGradient id="524b1972-09be-45f3-8c40-655cf5177b40" x1="307.5" y1="218.47" x2="405.51" y2="218.47" xlink:href="#9ae86b3e-5648-4735-80d3-eabe24ab62d5"/><linearGradient id="5ff6ad6c-79a4-4573-859e-a8e125895b0e" x1="307.5" y1="221.74" x2="405.51" y2="221.74" xlink:href="#9ae86b3e-5648-4735-80d3-eabe24ab62d5"/><linearGradient id="9705dc8f-963d-462d-b25f-68ca87f62f52" x1="307.5" y1="225.01" x2="405.51" y2="225.01" xlink:href="#9ae86b3e-5648-4735-80d3-eabe24ab62d5"/><linearGradient id="99f3a750-9697-4686-bf55-72e2493fb92d" x1="307.5" y1="228.29" x2="405.51" y2="228.29" xlink:href="#9ae86b3e-5648-4735-80d3-eabe24ab62d5"/><linearGradient id="5586305b-0db9-4110-a323-ec9cb63feb77" x1="307.5" y1="231.56" x2="405.51" y2="231.56" xlink:href="#9ae86b3e-5648-4735-80d3-eabe24ab62d5"/><linearGradient id="56993ef0-a8d7-4eed-b454-be2c503297e4" x1="307.5" y1="234.83" x2="405.51" y2="234.83" xlink:href="#9ae86b3e-5648-4735-80d3-eabe24ab62d5"/><linearGradient id="0f1d79f3-160e-4eff-978c-112783d9d933" x1="307.5" y1="238.11" x2="405.51" y2="238.11" xlink:href="#9ae86b3e-5648-4735-80d3-eabe24ab62d5"/><linearGradient id="0ff867a7-1146-41c8-8417-f8029764079b" x1="156.21" y1="116.73" x2="300.22" y2="116.73" xlink:href="#d3e1f3f5-dbd2-46ee-ac53-b3b070204ffb"/><linearGradient id="d1ae0833-b6ca-4f8e-aaf2-8455f11f5b37" x1="338.47" y1="142.78" x2="336.15" y2="207.48" xlink:href="#7c15aa9e-977c-49e8-af7e-101cf7b64ed0"/><linearGradient id="da0a1871-0c2c-4162-a697-5177a0437ca4" x1="156.28" y1="192.83" x2="300.15" y2="192.83" xlink:href="#d3e1f3f5-dbd2-46ee-ac53-b3b070204ffb"/><linearGradient id="90705de3-7cf6-48f3-ab79-97cb8588b011" x1="156.34" y1="205.01" x2="300.21" y2="205.01" xlink:href="#8b5de2d7-ee54-4b0d-816d-1e68a0c79c17"/><linearGradient id="80e948ee-6ed0-4a64-ab07-9ce6e020a3a0" x1="280.43" y1="180.81" x2="257.25" y2="215.66" gradientUnits="userSpaceOnUse"><stop offset="0" stop-color="#44c8f5"/><stop offset="1" stop-color="#b1e3fa"/></linearGradient><linearGradient id="56afd400-0fcc-4c37-86fd-8b6cafca6691" x1="392.1" y1="245.26" x2="377.82" y2="262.64" gradientUnits="userSpaceOnUse"><stop offset="0" stop-color="#fff"/><stop offset="1" stop-color="#fff" stop-opacity="0"/></linearGradient><linearGradient id="5da4fce4-d715-4a86-9fa3-d527492f3ed5" x1="251.61" y1="175.93" x2="289" y2="175.93" xlink:href="#8b5de2d7-ee54-4b0d-816d-1e68a0c79c17"/><linearGradient id="941ffa5e-bc48-4085-be70-72a0331462f0" x1="254.13" y1="215.06" x2="286.48" y2="215.06" xlink:href="#8b5de2d7-ee54-4b0d-816d-1e68a0c79c17"/><linearGradient id="f4f7acb6-85d0-4f0e-bdb3-67caf6bb3e44" x1="193.15" y1="180.81" x2="169.96" y2="215.66" xlink:href="#80e948ee-6ed0-4a64-ab07-9ce6e020a3a0"/><linearGradient id="fdb8222c-b8eb-4c60-bd63-8f14c0e0d836" x1="304.81" y1="245.26" x2="290.54" y2="262.64" xlink:href="#56afd400-0fcc-4c37-86fd-8b6cafca6691"/><linearGradient id="e02e530c-e554-40ac-9af8-8a961d22e24f" x1="164.33" y1="175.93" x2="201.71" y2="175.93" xlink:href="#8b5de2d7-ee54-4b0d-816d-1e68a0c79c17"/><linearGradient id="4d416db3-6594-4895-b83f-2df3c8736b22" x1="166.85" y1="215.06" x2="199.2" y2="215.06" xlink:href="#8b5de2d7-ee54-4b0d-816d-1e68a0c79c17"/><linearGradient id="e580ec96-f586-4223-b0ee-2d9a3527de01" x1="138.12" y1="120.64" x2="317.41" y2="120.64" xlink:href="#8b5de2d7-ee54-4b0d-816d-1e68a0c79c17"/><linearGradient id="0f497450-e910-42e0-8bbf-19ca89156dab" x1="300.5" y1="160.1" x2="421.6" y2="160.1" xlink:href="#8b5de2d7-ee54-4b0d-816d-1e68a0c79c17"/><linearGradient id="8fb52237-b3f6-4ec5-9784-8d7bcce40c30" x1="236.51" y1="178.09" x2="216.33" y2="208.42" xlink:href="#8b5de2d7-ee54-4b0d-816d-1e68a0c79c17"/><linearGradient id="18abb619-0cab-41ed-bbb6-8d52d03707a9" x1="235.92" y1="178.97" x2="217.08" y2="207.29" xlink:href="#80e948ee-6ed0-4a64-ab07-9ce6e020a3a0"/><linearGradient id="a9a36030-8b08-4a14-8f8f-a653fd34c3f9" x1="346.82" y1="243.81" x2="335.22" y2="257.93" xlink:href="#56afd400-0fcc-4c37-86fd-8b6cafca6691"/><linearGradient id="267ca384-67d9-4ef2-906c-f07410ce8d9e" x1="232.78" y1="124.81" x2="221.14" y2="142.32" xlink:href="#8b5de2d7-ee54-4b0d-816d-1e68a0c79c17"/><linearGradient id="5e85d7a8-add3-4483-b8ea-c0f6364f7df4" x1="231.69" y1="126.44" x2="222.53" y2="140.21" xlink:href="#80e948ee-6ed0-4a64-ab07-9ce6e020a3a0"/><linearGradient id="b3cc5f24-9fca-485f-97ba-e88602694749" x1="341.29" y1="191.67" x2="333.95" y2="200.59" xlink:href="#56afd400-0fcc-4c37-86fd-8b6cafca6691"/><linearGradient id="0b1ea4f4-371a-42c9-a0d8-be0e5d9a6225" x1="239.01" y1="209.39" x2="236.93" y2="212.53" xlink:href="#8b5de2d7-ee54-4b0d-816d-1e68a0c79c17"/><linearGradient id="d39aae8b-cb30-4bc4-941a-306fc35acc86" x1="229.8" y1="237.54" x2="229.48" y2="246.58" gradientUnits="userSpaceOnUse"><stop offset="0" stop-color="#004747" stop-opacity="0.97"/><stop offset="1" stop-color="#553253" stop-opacity="0.97"/></linearGradient><linearGradient id="ee6c234e-75a1-4c48-8568-535acddd07f8" x1="314.19" y1="309.98" x2="314.19" y2="343.54" gradientUnits="userSpaceOnUse"><stop offset="0" stop-color="#0e090f"/><stop offset="1" stop-color="#38243d" stop-opacity="0.2"/></linearGradient><linearGradient id="8f962309-cfea-4705-800b-c0556318abc7" x1="-4724.9" y1="-264.29" x2="-4693.95" y2="-264.29" gradientTransform="matrix(-0.99, -0.17, -0.17, 0.99, -4265.99, -269.05)" gradientUnits="userSpaceOnUse"><stop offset="0" stop-color="#243477"/><stop offset="0.51" stop-color="#112451"/><stop offset="0.85" stop-color="#031936"/></linearGradient><linearGradient id="949d3968-d80e-414f-a8be-bb2677d74a05" x1="-4870.94" y1="361.93" x2="-4873.27" y2="341.92" gradientTransform="matrix(-1, 0, 0, 1, -4446.46, 0)" gradientUnits="userSpaceOnUse"><stop offset="0" stop-color="#f4f3f1"/><stop offset="1" stop-color="#ffb2bc"/></linearGradient><linearGradient id="ac320349-741d-4b8b-90a1-d69a1920ec8d" x1="6643.17" y1="382.5" x2="6644.5" y2="382.5" gradientTransform="translate(-6324.56 -66.53)" gradientUnits="userSpaceOnUse"><stop offset="0" stop-color="#030947"/><stop offset="0.16" stop-color="#020637"/><stop offset="0.39" stop-color="#010327"/><stop offset="0.65" stop-color="#00011d"/><stop offset="1" stop-color="#00001a"/></linearGradient><linearGradient id="91f29906-7621-479d-b789-e4cbc277fcf6" x1="6643.15" y1="383.18" x2="6655.89" y2="383.18" gradientTransform="translate(-6216.98)" xlink:href="#ac320349-741d-4b8b-90a1-d69a1920ec8d"/><linearGradient id="78adac41-5313-481d-b1b6-a5ad5ddb86c8" x1="-4878.48" y1="431.21" x2="-4876.15" y2="328.83" xlink:href="#949d3968-d80e-414f-a8be-bb2677d74a05"/><linearGradient id="d1f6a09a-3004-44b6-803c-6e92bb120373" x1="-4863.25" y1="295.82" x2="-4863.25" y2="340.51" xlink:href="#949d3968-d80e-414f-a8be-bb2677d74a05"/><linearGradient id="491255f7-4050-453b-9bd2-fc07f947a937" x1="5618.82" y1="-685.69" x2="5620.68" y2="-685.69" gradientTransform="translate(-5328.19 -294.07) rotate(13.13)" xlink:href="#ac320349-741d-4b8b-90a1-d69a1920ec8d"/><linearGradient id="121189a1-f8f1-44ba-a38f-4d8ee579e2fd" x1="5618.77" y1="-685.42" x2="5632.31" y2="-685.42" gradientTransform="translate(-5220.62 -227.54) rotate(13.13)" xlink:href="#ac320349-741d-4b8b-90a1-d69a1920ec8d"/><linearGradient id="1c2bd818-a5fd-4bdd-974e-03b63a997fd7" x1="-4861.51" y1="429.21" x2="-4862.87" y2="345.67" xlink:href="#949d3968-d80e-414f-a8be-bb2677d74a05"/><linearGradient id="d4f1caa6-9cbf-4cd1-97e6-f3bc03d496e4" x1="-4895.17" y1="297.36" x2="-4848.45" y2="329.26" gradientTransform="matrix(-1, 0, 0, 1, -4446.46, 0)" xlink:href="#8f962309-cfea-4705-800b-c0556318abc7"/><linearGradient id="335e6dbc-a806-43e7-a0ab-8ef5506a12cd" x1="-204.93" y1="292.57" x2="-204.93" y2="244.67" gradientTransform="translate(627)" xlink:href="#949d3968-d80e-414f-a8be-bb2677d74a05"/><linearGradient id="df90e977-e11e-4d82-92b6-35eb53c69b7d" x1="403.17" y1="231.48" x2="415.11" y2="271.22" xlink:href="#d3e1f3f5-dbd2-46ee-ac53-b3b070204ffb"/><linearGradient id="1564f0d7-4e94-440e-afe9-be7880c4cf24" x1="413.02" y1="228.52" x2="424.96" y2="268.26" xlink:href="#d3e1f3f5-dbd2-46ee-ac53-b3b070204ffb"/><linearGradient id="c8d9474b-6953-4733-9b86-a09563c9c38b" x1="1062.38" y1="256.23" x2="1062.38" y2="248.1" gradientTransform="translate(-635)" gradientUnits="userSpaceOnUse"><stop offset="0" stop-color="#e7e6ff"/><stop offset="0.34" stop-color="#c9d2f8"/><stop offset="0.76" stop-color="#aabdf1"/><stop offset="1" stop-color="#9eb5ee"/></linearGradient><linearGradient id="fb9d0c80-623a-4b16-8a8f-7217a89afd03" x1="1065.08" y1="255.03" x2="1065.08" y2="248.1" gradientTransform="translate(-742.57 -66.53)" gradientUnits="userSpaceOnUse"><stop offset="0" stop-color="#f9fbfc"/><stop offset="1" stop-color="#cddbff"/></linearGradient><linearGradient id="44ea26c0-84f2-4972-b8cf-39e9c519fc62" x1="1055.76" y1="256.58" x2="1055.76" y2="247.67" gradientTransform="translate(-742.57 -66.53)" gradientUnits="userSpaceOnUse"><stop offset="0" stop-color="#f9fbfc"/><stop offset="0.31" stop-color="#f0f5fd"/><stop offset="0.8" stop-color="#d8e3fe"/><stop offset="1" stop-color="#cddbff"/></linearGradient><linearGradient id="9206ba28-18ba-4fca-9a42-3e0407293c1e" x1="1059.76" y1="256.23" x2="1059.76" y2="253.56" gradientTransform="translate(-742.57 -66.53)" xlink:href="#c8d9474b-6953-4733-9b86-a09563c9c38b"/><linearGradient id="bc4565e8-1de7-40d3-ae1d-95e4da61b09f" x1="-4880.12" y1="242.65" x2="-4866.33" y2="242.65" xlink:href="#949d3968-d80e-414f-a8be-bb2677d74a05"/><linearGradient id="cf4b7e13-6940-4279-89c2-43b26a1a75b8" x1="-4897.33" y1="255.64" x2="-4887.04" y2="255.64" gradientTransform="matrix(-1, 0, 0, 1, -4554.03, -66.53)" gradientUnits="userSpaceOnUse"><stop offset="0" stop-color="#071786"/><stop offset="0.15" stop-color="#05136b"/><stop offset="0.32" stop-color="#041055"/><stop offset="0.51" stop-color="#030e45"/><stop offset="0.72" stop-color="#020c3b"/><stop offset="1" stop-color="#020c38"/></linearGradient><linearGradient id="1feeb55a-fe0e-475a-8606-a8facedf0632" x1="-4890.49" y1="255.36" x2="-4886.21" y2="255.36" xlink:href="#cf4b7e13-6940-4279-89c2-43b26a1a75b8"/><linearGradient id="3af48a79-1251-49ee-9d8c-87f42cc19bd1" x1="-4897.33" y1="247.93" x2="-4889.66" y2="247.93" xlink:href="#cf4b7e13-6940-4279-89c2-43b26a1a75b8"/><linearGradient id="369eb584-38d3-4a82-a279-d404cb49c2a6" x1="-4894.93" y1="267.33" x2="-4868.78" y2="267.33" xlink:href="#949d3968-d80e-414f-a8be-bb2677d74a05"/><linearGradient id="63c383ed-af1d-4d24-803b-980fcf327175" x1="-4898.99" y1="259.11" x2="-4916.16" y2="215.97" gradientTransform="matrix(-1, 0, 0, 1, -4446.46, 0)" gradientUnits="userSpaceOnUse"><stop offset="0" stop-color="#b2b1b9"/><stop offset="0.3" stop-color="#89919d"/><stop offset="0.77" stop-color="#4b6274"/><stop offset="1" stop-color="#334f64"/></linearGradient><linearGradient id="b9ba052d-b0b4-4fca-a340-aec35018a261" x1="408.57" y1="-64.31" x2="432" y2="-50.67" gradientTransform="matrix(1, 0, 0, 1, -41.92, 339.4)" xlink:href="#63c383ed-af1d-4d24-803b-980fcf327175"/><linearGradient id="c53f8d5f-5453-408b-ade2-90ae372db961" x1="-3893.78" y1="-79.14" x2="-3862.62" y2="-61.01" gradientTransform="matrix(1, 0, 0, -1, 4258.09, 199.73)" xlink:href="#63c383ed-af1d-4d24-803b-980fcf327175"/><linearGradient id="65565eb9-d4f8-437e-b706-6902f5a88d7a" x1="290.29" y1="-428.15" x2="269.21" y2="-422.85" gradientTransform="matrix(0.97, 0.24, -0.24, 0.97, -4.88, 643.47)" xlink:href="#f749a7f2-268c-4d35-a7d8-f401d936237c"/><linearGradient id="36495ab2-6dcd-4a20-984c-996f674ac31e" x1="266.99" y1="-424.12" x2="293.35" y2="-424.12" gradientTransform="matrix(0.97, 0.24, -0.24, 0.97, -4.88, 643.47)" xlink:href="#17b4d333-8c8f-474e-bd4d-6e28c9bc68de"/><linearGradient id="030c4b3f-5863-4558-8275-427ea353eaba" x1="-4374.51" y1="744.06" x2="-4395.59" y2="749.36" gradientTransform="matrix(-0.97, 0.24, 0.24, 0.97, -4053.25, 643.47)" xlink:href="#f749a7f2-268c-4d35-a7d8-f401d936237c"/><linearGradient id="634b9ce0-3070-478d-9b90-072caa246069" x1="-4397.81" y1="748.09" x2="-4371.44" y2="748.09" gradientTransform="matrix(-0.97, 0.24, 0.24, 0.97, -4053.25, 643.47)" xlink:href="#17b4d333-8c8f-474e-bd4d-6e28c9bc68de"/><linearGradient id="340aea0b-c150-4894-970c-461b0fff9329" x1="195.54" y1="293.86" x2="193.48" y2="305.21" xlink:href="#7177e724-2850-49f6-b79c-6b6d1688a13a"/><linearGradient id="d8fab30c-6a9e-48c0-a0cd-3f7ac5a5d3cd" x1="195.31" y1="293.03" x2="193.82" y2="301.24" xlink:href="#7177e724-2850-49f6-b79c-6b6d1688a13a"/><linearGradient id="3ae95850-3678-496d-a7f7-3f48c13d0760" x1="193.73" y1="303.9" x2="194.59" y2="296.09" xlink:href="#cc223c19-9109-489a-9010-37533121cb1a"/><linearGradient id="d90d1c94-c3ab-4134-a2a3-3e2fa5505452" x1="183.78" y1="298.14" x2="204.32" y2="225.42" xlink:href="#cc223c19-9109-489a-9010-37533121cb1a"/><linearGradient id="031595dc-496b-4922-8278-484648fe2596" x1="190.18" y1="255.45" x2="197.91" y2="255.45" xlink:href="#7c15aa9e-977c-49e8-af7e-101cf7b64ed0"/><linearGradient id="5b0d5836-1a7e-4be6-871b-d3b00251dc0a" x1="162.07" y1="200.36" x2="225.55" y2="200.36" xlink:href="#f749a7f2-268c-4d35-a7d8-f401d936237c"/><linearGradient id="943d3c01-ecb5-419f-8746-eb4f515db805" x1="229.67" y1="334.05" x2="198.3" y2="295.38" gradientTransform="matrix(1, 0, 0, 1, 0, 0)" xlink:href="#cf4b7e13-6940-4279-89c2-43b26a1a75b8"/><linearGradient id="2953581c-9424-41ba-ba01-7d9fa1371863" x1="-802.69" y1="3590.23" x2="-820.41" y2="3565.41" gradientTransform="translate(1131.08 -3166.7) rotate(1.43)" gradientUnits="userSpaceOnUse"><stop offset="0" stop-color="#ffd1c1"/><stop offset="0.28" stop-color="#ffcebe"/><stop offset="0.51" stop-color="#ffc6b4"/><stop offset="0.72" stop-color="#ffb8a2"/><stop offset="0.92" stop-color="#ffa48b"/><stop offset="1" stop-color="#ff9a7f"/></linearGradient><linearGradient id="75e0fd8f-73f3-470b-a1ef-eb8a2f808993" x1="-954.67" y1="1731.65" x2="-934.04" y2="1731.65" gradientTransform="matrix(0.83, -0.56, 0.56, 0.83, 43.56, -1569.97)" xlink:href="#ac320349-741d-4b8b-90a1-d69a1920ec8d"/><linearGradient id="15516047-1499-4b85-9654-5aa585644ef4" x1="215.78" y1="345.32" x2="184.41" y2="306.65" gradientTransform="matrix(1, 0, 0, 1, 0, 0)" xlink:href="#cf4b7e13-6940-4279-89c2-43b26a1a75b8"/><linearGradient id="43ca2e8a-e1f8-4b08-a5e2-970e50022753" x1="1369.72" y1="-394.22" x2="1382.85" y2="-394.22" gradientTransform="translate(-1185.22 426.36) rotate(9.17)" gradientUnits="userSpaceOnUse"><stop offset="0" stop-color="#ffd1c1"/><stop offset="0.49" stop-color="#ffcfbf"/><stop offset="0.66" stop-color="#ffcab8"/><stop offset="0.79" stop-color="#ffc0ad"/><stop offset="0.89" stop-color="#ffb29c"/><stop offset="0.98" stop-color="#ffa086"/><stop offset="1" stop-color="#ff9a7f"/></linearGradient><linearGradient id="5edce5b7-1245-48e6-b4be-f35ba38332c5" x1="183.99" y1="361.47" x2="191.47" y2="291.96" gradientTransform="matrix(1, 0, 0, 1, 0, 0)" xlink:href="#cf4b7e13-6940-4279-89c2-43b26a1a75b8"/><linearGradient id="ff692c13-34ba-494b-9796-2ce6032d6b15" x1="-859.35" y1="3656.45" x2="-878.03" y2="3630.29" gradientTransform="translate(1054.3 -3252.25) rotate(-0.02)" xlink:href="#2953581c-9424-41ba-ba01-7d9fa1371863"/><linearGradient id="5c1d9130-05e0-4fed-81a8-ac8b8d18081f" x1="-1039.94" y1="1752.1" x2="-1018.2" y2="1752.1" gradientTransform="translate(7.35 -1628.8) rotate(-35.55)" xlink:href="#ac320349-741d-4b8b-90a1-d69a1920ec8d"/><linearGradient id="606698a5-767d-4136-811b-aab1621e583e" x1="182.83" y1="361.34" x2="190.32" y2="291.84" gradientTransform="matrix(1, 0, 0, 1, 0, 0)" xlink:href="#cf4b7e13-6940-4279-89c2-43b26a1a75b8"/><linearGradient id="e8c21042-ebd7-4995-97e0-1e2a1b2b30ed" x1="193.37" y1="237.98" x2="195.51" y2="311.17" xlink:href="#d3e1f3f5-dbd2-46ee-ac53-b3b070204ffb"/><linearGradient id="e2afb9c1-2d21-4913-875a-03c6bce1df33" x1="89.06" y1="176.72" x2="92.85" y2="186.43" gradientTransform="matrix(1, 0, 0, 1, 0, 0)" xlink:href="#cf4b7e13-6940-4279-89c2-43b26a1a75b8"/><linearGradient id="b5379260-cb88-4e5b-a4d2-dbc4a1833059" x1="-17.1" y1="617.11" x2="-32.77" y2="608.06" gradientTransform="matrix(0.99, -0.13, 0.13, 0.99, 41.11, -411.14)" xlink:href="#cf4b7e13-6940-4279-89c2-43b26a1a75b8"/><linearGradient id="9f0f52c9-a9ae-487b-a879-9d584431b574" x1="-29.99" y1="574.97" x2="-29.99" y2="593.88" gradientTransform="matrix(0.99, -0.13, 0.13, 0.99, 148.69, -344.61)" gradientUnits="userSpaceOnUse"><stop offset="0" stop-color="#ffd1c1"/><stop offset="0.29" stop-color="#ffcebe"/><stop offset="0.51" stop-color="#ffc6b4"/><stop offset="0.72" stop-color="#ffb8a3"/><stop offset="0.92" stop-color="#ffa58c"/><stop offset="1" stop-color="#ff9a7f"/></linearGradient><linearGradient id="a7a6e45f-d748-4252-8fb3-40923818094e" x1="-34.12" y1="573.54" x2="-16.98" y2="573.54" gradientTransform="matrix(0.99, -0.13, 0.13, 0.99, 148.69, -344.61)" xlink:href="#43ca2e8a-e1f8-4b08-a5e2-970e50022753"/><linearGradient id="da90ac79-2af3-4925-b7a3-932504c91677" x1="-19.4" y1="573.86" x2="-16.23" y2="573.86" gradientTransform="matrix(0.99, -0.13, 0.13, 0.99, 148.69, -344.61)" gradientUnits="userSpaceOnUse"><stop offset="0" stop-color="#eea281"/><stop offset="0.16" stop-color="#ee9c80"/><stop offset="0.38" stop-color="#ed8a7c"/><stop offset="0.63" stop-color="#eb6d77"/><stop offset="0.9" stop-color="#e9466f"/><stop offset="1" stop-color="#e8356c"/></linearGradient><linearGradient id="b5abcdc4-ec9f-43c2-8b9d-ececbd6eb945" x1="-39.63" y1="564.53" x2="-15.43" y2="564.53" gradientTransform="matrix(0.99, -0.13, 0.13, 0.99, 148.69, -344.61)" xlink:href="#cf4b7e13-6940-4279-89c2-43b26a1a75b8"/><linearGradient id="78e900c2-2622-4788-be32-d17e28a37781" x1="-32.27" y1="571.46" x2="-36.27" y2="573.77" gradientTransform="matrix(0.99, -0.13, 0.13, 0.99, 148.69, -344.61)" gradientUnits="userSpaceOnUse"><stop offset="0" stop-color="#ffd1c1"/><stop offset="0.23" stop-color="#ffcdbc"/><stop offset="0.49" stop-color="#ffc1ae"/><stop offset="0.78" stop-color="#ffad96"/><stop offset="1" stop-color="#ff9a7f"/></linearGradient><linearGradient id="64275706-e293-484c-b2ed-77622ac0474a" x1="-1063.91" y1="593.9" x2="-1063.91" y2="584.55" gradientTransform="matrix(0.99, -0.13, 0.13, 0.99, 1179.94, -476.03)" xlink:href="#c8d9474b-6953-4733-9b86-a09563c9c38b"/><linearGradient id="21c40eeb-6434-4d92-b561-23d37347acf8" x1="-1061.48" y1="592.62" x2="-1061.48" y2="584.01" gradientTransform="matrix(0.99, -0.13, 0.13, 0.99, 1072.37, -542.56)" xlink:href="#fb9d0c80-623a-4b16-8a8f-7217a89afd03"/><linearGradient id="35d123a0-d76f-4759-9e0b-40a473735b77" x1="-1071.84" y1="595.09" x2="-1071.84" y2="583.96" gradientTransform="matrix(0.99, -0.13, 0.13, 0.99, 1072.37, -542.56)" xlink:href="#44ea26c0-84f2-4972-b8cf-39e9c519fc62"/><linearGradient id="5c3c50a7-5516-4f2c-bf0c-152c4de407c0" x1="-1066.74" y1="593.9" x2="-1066.74" y2="591.04" gradientTransform="matrix(0.99, -0.13, 0.13, 0.99, 1072.37, -542.56)" xlink:href="#c8d9474b-6953-4733-9b86-a09563c9c38b"/><linearGradient id="e61f3527-b6f1-4e51-a8f1-dba840735e95" x1="432.93" y1="-648.21" x2="348.3" y2="-654.04" gradientTransform="translate(-339.33 673.53) rotate(21.15)" xlink:href="#63c383ed-af1d-4d24-803b-980fcf327175"/><linearGradient id="b0a6066f-5689-4d18-8eaa-b9dd7afb5561" x1="353.84" y1="-656.6" x2="424.19" y2="-646.75" gradientTransform="translate(-391.89 -183.43) rotate(90)" xlink:href="#63c383ed-af1d-4d24-803b-980fcf327175"/><linearGradient id="e3673b61-f02c-4c9b-9fe2-70932476793a" x1="413.3" y1="-628.38" x2="368.65" y2="-673.03" gradientTransform="translate(-390.62 -183.2) rotate(90)" gradientUnits="userSpaceOnUse"><stop offset="0" stop-color="#b2d7fc"/><stop offset="0.07" stop-color="#9dcdf3"/><stop offset="0.23" stop-color="#6db5df"/><stop offset="0.39" stop-color="#46a2cf"/><stop offset="0.56" stop-color="#2793c2"/><stop offset="0.71" stop-color="#1288b8"/><stop offset="0.86" stop-color="#0481b3"/><stop offset="1" stop-color="#007fb1"/></linearGradient><linearGradient id="a3c08209-953b-4537-915f-d18612c907f4" x1="410.79" y1="-628.91" x2="367.19" y2="-672.5" gradientTransform="translate(-392.46 -181.94) rotate(90)" xlink:href="#80e948ee-6ed0-4a64-ab07-9ce6e020a3a0"/><linearGradient id="269d3e10-397c-4173-b074-d11eadecf4b9" x1="420.53" y1="-638.64" x2="376.93" y2="-682.24" gradientTransform="translate(-339.33 673.53) rotate(21.15)" xlink:href="#80e948ee-6ed0-4a64-ab07-9ce6e020a3a0"/><linearGradient id="3fe30057-1184-4c41-9aa0-b97f567d9a9c" x1="394.36" y1="-619.69" x2="391.95" y2="-684.01" gradientTransform="translate(-339.33 673.53) rotate(21.15)" xlink:href="#56afd400-0fcc-4c37-86fd-8b6cafca6691"/><linearGradient id="52283cbf-5574-491a-8fd2-bfcc50cedabe" x1="201.18" y1="302.83" x2="219.17" y2="314.76" gradientTransform="translate(-97.96 97.93) rotate(-21.15)" xlink:href="#63c383ed-af1d-4d24-803b-980fcf327175"/><linearGradient id="2914bb8d-2857-48ce-95dc-31007bd97cda" x1="237.2" y1="-666.63" x2="247.26" y2="-659.96" gradientTransform="matrix(0.92, 0.37, -0.37, 0.93, -248.83, 820.15)" xlink:href="#63c383ed-af1d-4d24-803b-980fcf327175"/><linearGradient id="25a877eb-82f7-4c13-bc9b-d404257e98cf" x1="389.83" y1="-608.75" x2="392.14" y2="-545.55" gradientTransform="translate(-339.33 673.53) rotate(21.15)" xlink:href="#63c383ed-af1d-4d24-803b-980fcf327175"/><linearGradient id="84cdbf73-26a6-4f00-be10-de787b066d7e" x1="389.68" y1="-608.76" x2="390.58" y2="-584.17" gradientTransform="translate(-339.33 673.53) rotate(21.15)" xlink:href="#63c383ed-af1d-4d24-803b-980fcf327175"/><linearGradient id="d7936c2a-b2aa-4c7f-93f1-3e3a1ad95491" x1="379.42" y1="-608.37" x2="381.73" y2="-545.19" gradientTransform="translate(-339.33 673.53) rotate(21.15)" xlink:href="#63c383ed-af1d-4d24-803b-980fcf327175"/><linearGradient id="e161a0c5-0d15-4f35-b577-11ec477ba274" x1="207.29" y1="308.5" x2="213.61" y2="311.42" xlink:href="#56afd400-0fcc-4c37-86fd-8b6cafca6691"/><linearGradient id="3da53f54-dcda-468c-a91f-c8f57af43335" x1="236.87" y1="244.4" x2="243.19" y2="247.32" xlink:href="#56afd400-0fcc-4c37-86fd-8b6cafca6691"/><linearGradient id="e6920826-ee7f-4c6a-b799-6d1e1a564105" x1="389.72" y1="-608.75" x2="392.03" y2="-545.52" gradientTransform="translate(-339.33 673.53) rotate(21.15)" xlink:href="#63c383ed-af1d-4d24-803b-980fcf327175"/><linearGradient id="6d268f43-009a-4c13-bcd2-3af70ddc8d67" x1="236.85" y1="244.47" x2="243.16" y2="247.38" xlink:href="#56afd400-0fcc-4c37-86fd-8b6cafca6691"/><linearGradient id="4df02f46-5efa-434b-915e-31332a31cf16" x1="231.24" y1="-722.02" x2="267.71" y2="-697.82" gradientTransform="matrix(0.92, 0.37, -0.37, 0.93, -248.83, 820.15)" xlink:href="#63c383ed-af1d-4d24-803b-980fcf327175"/><linearGradient id="eeb374ce-10b3-4c03-a652-d0ca6db7a3a9" x1="388.87" y1="-608.72" x2="391.18" y2="-545.52" gradientTransform="translate(-339.33 673.53) rotate(21.15)" xlink:href="#63c383ed-af1d-4d24-803b-980fcf327175"/><linearGradient id="c07ebc20-b49c-4f08-b506-f9fc35c8d140" x1="220.81" y1="-706.31" x2="257.28" y2="-682.1" gradientTransform="matrix(0.92, 0.37, -0.37, 0.93, -248.83, 820.15)" xlink:href="#63c383ed-af1d-4d24-803b-980fcf327175"/><linearGradient id="750f331d-94d0-41b0-9af9-b29d974bf690" x1="380.42" y1="-608.41" x2="382.73" y2="-545.22" gradientTransform="translate(-339.33 673.53) rotate(21.15)" xlink:href="#63c383ed-af1d-4d24-803b-980fcf327175"/><linearGradient id="f6921ca2-27ed-42a2-8768-4c6a4e41a9fb" x1="386.9" y1="-608.65" x2="389.21" y2="-545.42" gradientTransform="translate(-339.33 673.53) rotate(21.15)" xlink:href="#63c383ed-af1d-4d24-803b-980fcf327175"/><linearGradient id="31ef5448-c0c7-40fd-a891-38231ed042d8" x1="231.94" y1="-723.09" x2="268.42" y2="-698.89" gradientTransform="matrix(0.92, 0.37, -0.37, 0.93, -248.83, 820.15)" xlink:href="#63c383ed-af1d-4d24-803b-980fcf327175"/><linearGradient id="1bd7b536-356b-47ec-88a4-746bfd26840d" x1="236.67" y1="244.85" x2="242.99" y2="247.76" xlink:href="#56afd400-0fcc-4c37-86fd-8b6cafca6691"/><linearGradient id="9422a173-377f-4904-be6d-a148610903dd" x1="230.93" y1="-721.56" x2="267.41" y2="-697.36" gradientTransform="matrix(0.92, 0.37, -0.37, 0.93, -248.83, 820.15)" xlink:href="#63c383ed-af1d-4d24-803b-980fcf327175"/><linearGradient id="56c35188-0291-4fbe-999c-da04688fa9c9" x1="385.64" y1="-608.6" x2="387.95" y2="-545.41" gradientTransform="translate(-339.33 673.53) rotate(21.15)" xlink:href="#63c383ed-af1d-4d24-803b-980fcf327175"/><linearGradient id="fadfc5f4-204c-42f1-987f-8ee8e6430f14" x1="225.62" y1="268.78" x2="231.94" y2="271.69" xlink:href="#56afd400-0fcc-4c37-86fd-8b6cafca6691"/><linearGradient id="f4f79281-991b-4d2a-bcdc-a5ce97772fa9" x1="212.82" y1="281.68" x2="230.21" y2="281.68" gradientUnits="userSpaceOnUse"><stop offset="0" stop-color="#ffd1c1"/><stop offset="0.34" stop-color="#ffbaa5"/><stop offset="0.76" stop-color="#ffa389"/><stop offset="1" stop-color="#ff9a7f"/></linearGradient><linearGradient id="d2c735f3-2620-4007-bbb3-9f26fb1c0489" x1="103.29" y1="328.18" x2="103.29" y2="398.81" xlink:href="#ee6c234e-75a1-4c48-8568-535acddd07f8"/><linearGradient id="01d3a8f2-ee6d-4ca9-a20e-ce298e5ade02" x1="566.58" y1="225.37" x2="565.55" y2="81.5" gradientUnits="userSpaceOnUse"><stop offset="0" stop-color="#b866fa"/><stop offset="1" stop-color="#78ddfe"/></linearGradient><linearGradient id="e43de0f4-2c41-4ed9-a188-7a5c22ef7fa2" x1="446.3" y1="168.08" x2="445.27" y2="24.22" xlink:href="#01d3a8f2-ee6d-4ca9-a20e-ce298e5ade02"/><linearGradient id="11b97dff-ee73-4f78-b180-f233cb11bd0c" x1="614.02" y1="219.45" x2="614.97" y2="191.41" xlink:href="#01d3a8f2-ee6d-4ca9-a20e-ce298e5ade02"/><linearGradient id="dcdc6933-6591-4ecc-9f16-d2a55c076f2a" x1="190.64" y1="198.22" x2="189.62" y2="54.36" xlink:href="#01d3a8f2-ee6d-4ca9-a20e-ce298e5ade02"/><linearGradient id="d53f6d11-ea1e-4d79-af0b-37cf81f6ac93" x1="200.84" y1="205.6" x2="199.82" y2="61.74" xlink:href="#01d3a8f2-ee6d-4ca9-a20e-ce298e5ade02"/><linearGradient id="885c53cf-9551-4da4-a3b7-a142ad4146c2" x1="501.08" y1="183.98" x2="500.05" y2="40.12" xlink:href="#01d3a8f2-ee6d-4ca9-a20e-ce298e5ade02"/><linearGradient id="8bf6d14c-6016-458b-8b99-83ccc17f587a" x1="117.12" y1="209.22" x2="116.09" y2="65.35" xlink:href="#01d3a8f2-ee6d-4ca9-a20e-ce298e5ade02"/></defs><title>empty_list</title><g style="isolation:isolate"><g id="c7eaa52c-e2fe-48b3-b40d-f3062d6a3ebd" data-name="OBJECTS"><path d="M245.56,296.55c-1.59,6.42,7.17,13.23,12.32,15.68,6.79,3.22,14.52,3.61,22,3.95l49.93,2.24c3.57.16,7.75.67,9.55,3.76s.13,7-2.63,9.14-6.34,2.73-9.76,3.3l-53.91,9c-7.4,1.24-16.7,4.57-16.67,12.08,0,4.11,3.28,7.64,7.06,9.27s8,1.74,12.11,1.82l83.12,1.71c4.05.09,8.26.21,11.84,2.1s6.29,6.1,5.07,10c-1.43,4.52-7.45,6.87-7.77,11.6-.41,5.85,7.54,7.93,13.4,7.95l61.51.17c14,0,27.73.6,41.68.28,10.17-.24,20.34-.13,30.51-.36q7.62-.17,15.24-.4c3.75-.11,17.19,1.65,18.63-3.15.69-2.32-.68-4.81-2.54-6.35-2.79-2.3-6.55-3-10.16-3.25s-7.27.05-10.83-.61-7.14-2.43-8.87-5.6c-2.82-5.17,1.68-10.47,6.2-12.6,5.33-2.53,11.52-2,17.4-1.59s12.15.72,17.3-2.15c5.72-3.17,8.9-8.89,3.44-14.41-2.8-2.84-6.86-4.06-10.82-4.5-6.33-.71-12.71.29-19.08.34s-13.12-1-18-5.14-6.83-12.07-2.82-17c3.52-4.35,9.87-4.84,15.46-5L554,318c4.15-.1,8.74.3,12.78-.6,1.16-.26,11.11-3.25,11.11-4.17,3.47-1.63,6.86-3.75,9-6.95s2.65-7.68.44-10.82c-2.72-3.87-8.18-4.32-12.91-4.4-20-.63-40-1.06-60-1.4-19.46-.33-40.08,1.37-59.37-1-18.33-2.25-37.6-.28-56.13.42s-37.83,1.39-56.2,1.21c-17.36-.18-34.72-.09-52.08.18C281.79,290.65,248.17,286,245.56,296.55Z" transform="translate(-107.57 -66.53)" style="fill:url(#48acf67e-1c02-47b7-a09f-7f679b4265b5)"/><g style="mix-blend-mode:overlay"><path d="M418.1,311.08a.63.63,0,0,0,0-1.25.63.63,0,0,0,0,1.25Z" transform="translate(-107.57 -66.53)" style="fill:url(#5577e4b2-bb2d-4263-8983-3a6a2f489bca)"/></g><g style="mix-blend-mode:overlay"><path d="M400.29,300.86a.63.63,0,0,0,0-1.26.63.63,0,0,0,0,1.26Z" transform="translate(-107.57 -66.53)" style="fill:url(#2023a376-97c6-435a-929d-1513effc1eb6)"/></g><g style="mix-blend-mode:overlay"><path d="M449.43,303.17a.63.63,0,0,0,0-1.26.63.63,0,0,0,0,1.26Z" transform="translate(-107.57 -66.53)" style="fill:url(#9a1f30b0-ce49-4722-b8b4-879d3df0e37d)"/></g><g style="mix-blend-mode:overlay"><path d="M488,300.83a1.26,1.26,0,0,0,0-2.51,1.26,1.26,0,0,0,0,2.51Z" transform="translate(-107.57 -66.53)" style="fill:url(#276ec57a-8b7b-47be-b037-164dee6999f2)"/></g><g style="mix-blend-mode:overlay"><path d="M429,299.84a1.26,1.26,0,0,0,0-2.51,1.26,1.26,0,0,0,0,2.51Z" transform="translate(-107.57 -66.53)" style="fill:url(#c7e1b1f3-04d7-4a3e-b3ac-d9719643e15d)"/></g><path d="M162.07,160.63c-11.62,2.91-22.3,8-30.3,17.27-10,11.61-13.83,28.83-9.71,43.92C132.22,259,158,282.32,190,289.77c70,16.28,141.5-1.35,212.12.11,32.75.68,62.22,11,95.27,9.33a277.63,277.63,0,0,0,99.74-24c16.24-7.3,52.3-28.37,18.43-42.66-9.18-3.88-20.72-7.12-23.4-17.17-3.73-13.95,13.58-25,14.37-39.53.52-9.44-6.51-17.87-14.76-21.59s-17.5-3.73-26.46-3.69l-89.45.41c-9.52,0-19.2.07-28.34-2.76s-17.81-9-21.65-18.16c-5.57-13.32,0-29.63-5.56-42.93C416.42,78,407.69,71.87,398.52,69.1s-18.86-2.65-28.4-2.51l-123,1.71c-12.46.18-25.61.55-36.24,7.4s-17.16,22.63-10.29,33.6c4.29,6.83,12.28,9.86,19.88,11.54s15.59,2.54,22.27,6.73,11.56,13.08,8.51,20.61c-3.52,8.67-14.37,10.13-23.31,10.31C200,159.06,189.08,153.85,162.07,160.63Z" transform="translate(-107.57 -66.53)" style="fill:url(#7f65219a-24fd-4597-b585-d52d36778ffd)"/><circle cx="508.34" cy="141.08" r="44.69" transform="translate(-123.48 15.55) rotate(-9.09)" style="fill:url(#1eaccf40-e2b5-4170-9e38-28242c3a5937)"/><path d="M312.93,300.2v-5.94H280.8v6h0a.25.25,0,0,0,0,.07c0,2.31,7.2,4.18,16.08,4.18S313,302.65,313,300.34C313,300.3,312.93,300.25,312.93,300.2Z" transform="translate(-107.57 -66.53)" style="fill:url(#7177e724-2850-49f6-b79c-6b6d1688a13a)"/><path d="M313,294.34c0,2.31-7.19,4.18-16.07,4.18s-16.08-1.87-16.08-4.18,7.2-4.18,16.08-4.18S313,292,313,294.34Z" transform="translate(-107.57 -66.53)" style="fill:url(#a363c92f-aed8-4476-bbaa-e681dec3bd09)"/><path d="M310.07,294.07c0,1.9-5.91,3.43-13.19,3.43s-13.19-1.53-13.19-3.43,5.9-3.43,13.19-3.43S310.07,292.18,310.07,294.07Z" transform="translate(-107.57 -66.53)" style="fill:url(#cc223c19-9109-489a-9010-37533121cb1a)"/><path d="M302.92,295.07a14.18,14.18,0,0,1-6,1.07c-4.6,0-6.05-1.07-6.05-1.07V237.89h12.09Z" transform="translate(-107.57 -66.53)" style="fill:url(#bf15cd27-20b1-4fef-a5be-876fe12304b4)"/><path d="M302.92,280.22s-11.52-10.66-7.18-29.72c2.42-10.58-4.91-12.61-4.91-12.61h12.09Z" transform="translate(-107.57 -66.53)" style="opacity:0.30000000000000004;mix-blend-mode:multiply;fill:url(#7c15aa9e-977c-49e8-af7e-101cf7b64ed0)"/><path d="M298.34,252h-4.56a38.17,38.17,0,0,1-34.48-54.56l26-54.69a11.42,11.42,0,0,1,20.55-.14L332.59,197A38.17,38.17,0,0,1,298.34,252Z" transform="translate(-107.57 -66.53)" style="fill:url(#17b4d333-8c8f-474e-bd4d-6e28c9bc68de)"/><path d="M483.55,292.88V287.1H452.29V293h0s0,0,0,.07c0,2.24,7,4.06,15.64,4.06s15.64-1.82,15.64-4.06C483.57,293,483.55,292.93,483.55,292.88Z" transform="translate(-107.57 -66.53)" style="fill:url(#81ebc1ff-bf9d-49ec-9c27-0aa45651ea42)"/><path d="M483.57,287.18c0,2.24-7,4.06-15.64,4.06s-15.64-1.82-15.64-4.06,7-4.07,15.64-4.07S483.57,284.93,483.57,287.18Z" transform="translate(-107.57 -66.53)" style="fill:url(#ff4ed909-9cc1-4d09-9da4-3b96d91dae73)"/><path d="M480.77,286.92c0,1.84-5.75,3.33-12.84,3.33s-12.83-1.49-12.83-3.33,5.75-3.34,12.83-3.34S480.77,285.07,480.77,286.92Z" transform="translate(-107.57 -66.53)" style="fill:url(#046323dd-f7f4-41ab-84c0-2409ee5ab542)"/><path d="M473.82,287.89a13.93,13.93,0,0,1-5.89,1c-4.47,0-5.88-1-5.88-1V232.24h11.77Z" transform="translate(-107.57 -66.53)" style="fill:url(#685d9423-00f2-4611-850f-650ee3ae8cfb)"/><path d="M473.82,273.43s-11.22-10.36-7-28.91c2.35-10.29-4.78-12.28-4.78-12.28h11.77Z" transform="translate(-107.57 -66.53)" style="opacity:0.30000000000000004;mix-blend-mode:multiply;fill:url(#85839080-1031-4d22-a9a0-e164292e47de)"/><path d="M469.35,246h-4.43a37.14,37.14,0,0,1-33.55-53.09l25.3-53.21a11.1,11.1,0,0,1,20-.14l26,52.91A37.14,37.14,0,0,1,469.35,246Z" transform="translate(-107.57 -66.53)" style="fill:url(#3a0f863b-2146-4397-8ba4-84f456c2ac22)"/><path d="M545.35,286.93v-3.77H525V287h0a.06.06,0,0,0,0,0c0,1.47,4.57,2.66,10.21,2.66s10.2-1.19,10.2-2.66C545.36,287,545.35,287,545.35,286.93Z" transform="translate(-107.57 -66.53)" style="fill:url(#e7aabfa8-2835-45ba-9084-c9792622f050)"/><path d="M545.36,283.21c0,1.47-4.57,2.66-10.2,2.66S525,284.68,525,283.21s4.57-2.65,10.21-2.65S545.36,281.75,545.36,283.21Z" transform="translate(-107.57 -66.53)" style="fill:url(#f2004712-9e97-4a22-8132-7e5ff11ee8df)"/><path d="M543.53,283c0,1.2-3.75,2.18-8.37,2.18s-8.38-1-8.38-2.18,3.75-2.18,8.38-2.18S543.53,281.84,543.53,283Z" transform="translate(-107.57 -66.53)" style="fill:url(#80843098-7f1c-4a61-a75b-52091787ad20)"/><path d="M539,283.68a9,9,0,0,1-3.84.68c-2.92,0-3.84-.68-3.84-.68V247.36H539Z" transform="translate(-107.57 -66.53)" style="fill:url(#702ada09-897c-4f54-905b-0c9a38ce6ca5)"/><path d="M539,274.24s-7.32-6.76-4.56-18.87c1.53-6.71-3.12-8-3.12-8H539Z" transform="translate(-107.57 -66.53)" style="opacity:0.30000000000000004;mix-blend-mode:multiply;fill:url(#db0282f2-0065-4a7b-91ba-0114ec3a12b1)"/><path d="M536.08,256.32h-2.89a24.25,24.25,0,0,1-21.9-34.65l16.51-34.73a7.25,7.25,0,0,1,13.05-.08l17,34.52A24.24,24.24,0,0,1,536.08,256.32Z" transform="translate(-107.57 -66.53)" style="fill:url(#35da743d-8314-44c2-a55f-aa22e75cbd7e)"/><path d="M238.09,252.63h-4.5a37.7,37.7,0,0,1-34.05-53.9l25.68-54a11.27,11.27,0,0,1,20.3-.13l26.41,53.7A37.71,37.71,0,0,1,238.09,252.63Z" transform="translate(-107.57 -66.53)" style="fill:url(#f749a7f2-268c-4d35-a7d8-f401d936237c)"/><polygon points="412.69 172.78 412.69 238.6 291.59 238.6 291.59 146.23 412.69 172.78" style="fill:url(#d3e1f3f5-dbd2-46ee-ac53-b3b070204ffb)"/><rect x="305.22" y="180.42" width="102.56" height="58.19" style="fill:url(#8b5de2d7-ee54-4b0d-816d-1e68a0c79c17)"/><rect x="307.5" y="182.87" width="98.01" height="55.73" style="fill:#fff"/><rect x="307.5" y="185.05" width="98.01" height="1.36" style="fill:url(#9ae86b3e-5648-4735-80d3-eabe24ab62d5)"/><rect x="307.5" y="188.33" width="98.01" height="1.36" style="fill:url(#8b43056f-775c-4936-a521-564dc6079e24)"/><rect x="307.5" y="191.6" width="98.01" height="1.36" style="fill:url(#5d8e3dc2-eb36-4548-8a41-9fc2c62493a5)"/><rect x="307.5" y="194.87" width="98.01" height="1.36" style="fill:url(#0eaf9f60-f265-4cf5-874e-d69480064af6)"/><rect x="307.5" y="198.15" width="98.01" height="1.36" style="fill:url(#531b61e5-121d-40e0-979a-4a732eaf1e97)"/><rect x="307.5" y="201.42" width="98.01" height="1.36" style="fill:url(#ac2a57f3-ff4d-4b2e-965e-6b648b1eccf4)"/><rect x="307.5" y="204.69" width="98.01" height="1.36" style="fill:url(#e7eadcc2-9e53-405e-b9dd-ac401e894a37)"/><rect x="307.5" y="207.97" width="98.01" height="1.36" style="fill:url(#0891c3b6-08c2-48cb-af76-4d65ae93c172)"/><rect x="307.5" y="211.24" width="98.01" height="1.36" style="fill:url(#93c4fed3-a594-4099-9da7-29dcf547f592)"/><rect x="307.5" y="214.51" width="98.01" height="1.36" style="fill:url(#b84bc22d-ec79-42c4-8ca6-5d64161ae550)"/><rect x="307.5" y="217.78" width="98.01" height="1.36" style="fill:url(#524b1972-09be-45f3-8c40-655cf5177b40)"/><rect x="307.5" y="221.06" width="98.01" height="1.36" style="fill:url(#5ff6ad6c-79a4-4573-859e-a8e125895b0e)"/><rect x="307.5" y="224.33" width="98.01" height="1.36" style="fill:url(#9705dc8f-963d-462d-b25f-68ca87f62f52)"/><rect x="307.5" y="227.6" width="98.01" height="1.36" style="fill:url(#99f3a750-9697-4686-bf55-72e2493fb92d)"/><rect x="307.5" y="230.88" width="98.01" height="1.36" style="fill:url(#5586305b-0db9-4110-a323-ec9cb63feb77)"/><rect x="307.5" y="234.15" width="98.01" height="1.36" style="fill:url(#56993ef0-a8d7-4eed-b454-be2c503297e4)"/><rect x="307.5" y="237.42" width="98.01" height="1.36" style="fill:url(#0f1d79f3-160e-4eff-978c-112783d9d933)"/><polygon points="300.22 146.89 156.21 146.89 228.21 86.57 300.22 146.89" style="fill:url(#0ff867a7-1146-41c8-8417-f8029764079b)"/><path d="M407.79,213.42s-47.87-35.88-72.92-36.19c-21.64-.27-70.72,34.34-70.72,34.34l71.64-58.47Z" transform="translate(-107.57 -66.53)" style="opacity:0.30000000000000004;mix-blend-mode:multiply;fill:url(#d1ae0833-b6ca-4f8e-aaf2-8455f11f5b37)"/><rect x="156.28" y="146.89" width="143.87" height="91.87" style="fill:url(#da0a1871-0c2c-4162-a697-5177a0437ca4)"/><polygon points="300.21 234.65 247.49 234.65 247.49 171.21 209.06 171.21 209.06 234.65 156.34 234.65 156.34 238.82 209.06 238.82 247.49 238.82 300.21 238.82 300.21 234.65" style="fill:url(#90705de3-7cf6-48f3-ab79-97cb8588b011)"/><rect x="212.04" y="174.11" width="32.35" height="64.65" style="fill:#fff"/><rect x="212.04" y="174.11" width="32.35" height="64.65" style="fill:#fff"/><rect x="254.13" y="174.11" width="32.35" height="42.07" style="fill:#fff"/><rect x="255.93" y="180.1" width="28.75" height="31.87" style="fill:url(#80e948ee-6ed0-4a64-ab07-9ce6e020a3a0)"/><path d="M392.25,278.5a39.58,39.58,0,0,0-10.49-23.83c-7.14-7.57-18.26-8-18.26-8h28.75Z" transform="translate(-107.57 -66.53)" style="mix-blend-mode:overlay;fill:url(#56afd400-0fcc-4c37-86fd-8b6cafca6691)"/><rect x="269.57" y="175.13" width="1.47" height="40.03" style="fill:#fff"/><rect x="377.13" y="245.74" width="1.5" height="31.88" transform="translate(8.63 573.02) rotate(-90)" style="fill:#fff"/><path d="M254.66,173.8h31.28a3.05,3.05,0,0,1,3.05,3.05v1.2a0,0,0,0,1,0,0H251.61a0,0,0,0,1,0,0v-1.2A3.05,3.05,0,0,1,254.66,173.8Z" style="fill:url(#5da4fce4-d715-4a86-9fa3-d527492f3ed5)"/><rect x="254.13" y="213.94" width="32.35" height="2.24" style="fill:url(#941ffa5e-bc48-4085-be70-72a0331462f0)"/><rect x="166.85" y="174.11" width="32.35" height="42.07" style="fill:#fff"/><rect x="168.65" y="180.1" width="28.75" height="31.87" style="fill:url(#f4f7acb6-85d0-4f0e-bdb3-67caf6bb3e44)"/><path d="M305,278.5a39.56,39.56,0,0,0-10.5-23.83c-7.14-7.57-18.25-8-18.25-8H305Z" transform="translate(-107.57 -66.53)" style="mix-blend-mode:overlay;fill:url(#fdb8222c-b8eb-4c60-bd63-8f14c0e0d836)"/><rect x="182.29" y="175.13" width="1.47" height="40.03" style="fill:#fff"/><rect x="289.85" y="245.74" width="1.5" height="31.88" transform="translate(-78.66 485.74) rotate(-90)" style="fill:#fff"/><path d="M167.38,173.8h31.28a3.05,3.05,0,0,1,3.05,3.05v1.2a0,0,0,0,1,0,0H164.33a0,0,0,0,1,0,0v-1.2A3.05,3.05,0,0,1,167.38,173.8Z" style="fill:url(#e02e530c-e554-40ac-9af8-8a961d22e24f)"/><rect x="166.85" y="213.94" width="32.35" height="2.24" style="fill:url(#4d416db3-6594-4895-b83f-2df3c8736b22)"/><polygon points="309.57 158.65 317.41 158.65 228.21 82.63 138.12 158.65 146.24 158.65 228.21 90.91 309.57 158.65" style="fill:url(#e580ec96-f586-4223-b0ee-2d9a3527de01)"/><polygon points="300.5 144.96 308.68 151.78 421.6 175.24 416.42 168.69 300.5 144.96" style="fill:url(#0f497450-e910-42e0-8bbf-19ca89156dab)"/><rect x="215.03" y="177.57" width="25.32" height="27.53" style="fill:url(#8fb52237-b3f6-4ec5-9784-8d7bcce40c30)"/><rect x="216.01" y="178.39" width="23.36" height="25.9" style="fill:url(#18abb619-0cab-41ed-bbb6-8d52d03707a9)"/><path d="M347,270.81a32.2,32.2,0,0,0-8.53-19.36c-5.8-6.15-14.83-6.53-14.83-6.53H347Z" transform="translate(-107.57 -66.53)" style="mix-blend-mode:overlay;fill:url(#a9a36030-8b08-4a14-8f8f-a653fd34c3f9)"/><rect x="215.91" y="127.49" width="23.56" height="9.94" style="fill:url(#267ca384-67d9-4ef2-906c-f07410ce8d9e)"/><rect x="217.73" y="129.01" width="19.93" height="6.89" style="fill:url(#5e85d7a8-add3-4483-b8ea-c0f6364f7df4)"/><path d="M345.23,202.43s-.24-2.82-7.27-5.15c-4.95-1.63-12.66-1.73-12.66-1.73h19.93Z" transform="translate(-107.57 -66.53)" style="mix-blend-mode:overlay;fill:url(#b3cc5f24-9fca-485f-97ba-e88602694749)"/><circle cx="238.1" cy="210.76" r="1.91" style="fill:url(#0b1ea4f4-371a-42c9-a0d8-be0e5d9a6225)"/><polygon points="255.35 245.16 203.71 245.16 211.68 238.15 246.43 238.15 255.35 245.16" style="fill:url(#d39aae8b-cb30-4bc4-941a-306fc35acc86)"/><ellipse cx="314.19" cy="323.83" rx="41.53" ry="8.53" style="opacity:0.14;mix-blend-mode:multiply;fill:url(#ee6c234e-75a1-4c48-8568-535acddd07f8)"/><path d="M418.83,223.62a6.17,6.17,0,0,1,1.72.16c.65.16.81.4,1.44.14a7.39,7.39,0,0,1,2.89-1,8.51,8.51,0,0,1,3.11.63,11.21,11.21,0,0,1,5,4.09c2,3,2.8,6.7,3.26,10.31a79.58,79.58,0,0,1,.45,15.43,74.92,74.92,0,0,1-2.09,14.91,15.49,15.49,0,0,1-15.18,12.2,51.31,51.31,0,0,1-11.32-.86c-2.09-.31-4.5-.86-5.38-2.77-.62-1.31-.27-2.85.08-4.26q1.41-5.62,2.81-11.25c.86-3.44,1.23-7,1.93-10.51A202.46,202.46,0,0,1,413.21,229a11.16,11.16,0,0,1,1.69-3.63A5.33,5.33,0,0,1,418.83,223.62Z" transform="translate(-107.57 -66.53)" style="fill:url(#8f962309-cfea-4705-800b-c0556318abc7)"/><path d="M438.86,282.14c-.57.44-4.74-6.5-5.13-7.18-1.72-3-10.75-25.48-1.56-24.21a4.6,4.6,0,0,1,3.12,2.24c3.07,4.75,9.1,21.78,9.1,21.78Z" transform="translate(-107.57 -66.53)" style="fill:#fdfdfe"/><path d="M440.09,282.35s-.19-8,4.51-8.68l-.33-1.05a5.56,5.56,0,0,0-3.61.59c-.93.53-4.42,3.08-4.74,7.05,0,.3,2.78,2,2.78,2Z" transform="translate(-107.57 -66.53)" style="fill:#fdfdfe"/><path d="M442,262.77l-.28-2.74-.86-2.71-.55-1.73a4.6,4.6,0,0,0-1.29-1.73s.55-1.1,1.35-.29c.33.33.65.67,1,1l.44.47c.18.19.23.26.46.06a1.58,1.58,0,0,1,.15-.12l2-7s.86-.35.93.39c.05.57-.41,3.73-.63,5.16l.17-.05c.3-.1.85-.34,1,.05s.31.79.7,1,1,0,1.52.42.85.94.72,1.45l-2.54,7.7a15,15,0,0,0-.26,3.49c-.07,1.18-.12,2.35-.16,3.53-.1,2.87-.23,13.86-6.48,11.53-1.34-.5-2-2.56-2.34-3.87C436.31,275.72,442,262.77,442,262.77Z" transform="translate(-107.57 -66.53)" style="fill:#fbc8ce"/><path d="M430.07,304.3c-11.25-1.33-8.15,19.75-6.88,25.58.58,2.66,1.45,5.24,2,7.9.74,3.49,1,8.48,6,7.62,3.44-.59,3.69-3.25,4-6.13.64-5.45.94-10.95,1.32-16.42C437,316.9,438.59,305.31,430.07,304.3Z" transform="translate(-107.57 -66.53)" style="fill:url(#949d3968-d80e-414f-a8be-bb2677d74a05)"/><polygon points="318.61 312.78 318.75 319.15 319.76 319.15 319.95 314.11 318.61 312.78" style="fill:url(#ac320349-741d-4b8b-90a1-d69a1920ec8d)"/><path d="M435.11,384.19s4.36,6,3.74,6.95-5.38,1.11-8.27,0-3-8.23-4.27-11.3c-.55-1.28.62-5.07,2.27-5.34a7.37,7.37,0,0,1,3.59.59S430.48,379.45,435.11,384.19Z" transform="translate(-107.57 -66.53)" style="fill:url(#91f29906-7621-479d-b789-e4cbc277fcf6)"/><path d="M433.06,379.91a35.77,35.77,0,0,1-.79-4c.52-7.05,2.16-29.35,2.24-31.14.1-2.18.44-4.09-1.44-5.66a4.18,4.18,0,0,0-1.76-.85l-.2,0c-3-.48-5.08,1.85-5.48,4.56a50.49,50.49,0,0,0-.8,10.26c.16,3,.5,6.08.9,9.1.55,4.17,2.32,12.73,2.55,14.19a15.49,15.49,0,0,0,0,2.31c.14,2.49,1.31,6.61,2.82,8s5.24.92,5.38.37S433.61,381.91,433.06,379.91Z" transform="translate(-107.57 -66.53)" style="fill:url(#78adac41-5313-481d-b1b6-a5ad5ddb86c8)"/><path d="M420.36,305.53c-3.19-1.3-7.42.18-9.72,3.91-3.8,6.13-1,14.48.22,21,.49,2.67,1.28,5.28,1.76,8,.64,3.51.71,8.51,5.73,7.81,3.45-.48,3.8-3.14,4.23-6,.82-5.46,1.3-11,1.86-16.46a44.92,44.92,0,0,0-.08-12.79A6.83,6.83,0,0,0,420.36,305.53Z" transform="translate(-107.57 -66.53)" style="fill:url(#d1f6a09a-3004-44b6-803c-6e92bb120373)"/><polygon points="300.49 311.63 299.47 317.93 300.27 318.11 302.01 313.29 300.49 311.63" style="fill:url(#491255f7-4050-453b-9bd2-fc07f947a937)"/><path d="M416.09,384.41s3.35,6.6,2.59,7.45-5.48.24-8.16-1.31-1.62-8.6-2.43-11.84c-.33-1.35,1.43-4.9,3.1-4.91a7.39,7.39,0,0,1,3.44,1.15S412.27,379,416.09,384.41Z" transform="translate(-107.57 -66.53)" style="fill:url(#121189a1-f8f1-44ba-a38f-4d8ee579e2fd)"/><path d="M414.75,379.85a38.1,38.1,0,0,1-.14-4.1c1.64-6.88,6.8-28.63,7.17-30.39.44-2.14,1.08-4-.53-5.81a4,4,0,0,0-1.6-1.13l-.19-.07c-2.9-1-5.31,1-6.14,3.64a50,50,0,0,0-2.42,10c-.32,3-.47,6.09-.56,9.14-.11,4.19.27,12.93.26,14.41a16.37,16.37,0,0,0-.41,2.28c-.25,2.48.25,6.73,1.52,8.37s5,1.74,5.24,1.22S415,381.92,414.75,379.85Z" transform="translate(-107.57 -66.53)" style="fill:url(#1c2bd818-a5fd-4bdd-974e-03b63a997fd7)"/><path d="M437.22,317.49a130.6,130.6,0,0,0-4.08-26.44h-22.9s-4.76,7.88-4.93,21.84c.11,8.5-.07,16.64-.77,25.12a1,1,0,0,0,0,.49.79.79,0,0,0,.66.37,95.08,95.08,0,0,0,17.19,2,33.17,33.17,0,0,0,15.49-3.57C437.28,330.75,437.57,324,437.22,317.49Z" transform="translate(-107.57 -66.53)" style="fill:url(#d4f1caa6-9cbf-4cd1-97e6-f3bc03d496e4)"/><path d="M437.49,265.7c-.32-2.76-7-15.34-7-15.34a27.94,27.94,0,0,1-3-.63c-.57-.17.12-1.83-.19-2.13a1.33,1.33,0,0,0-.71-.3,18.65,18.65,0,0,1-6.15-2.63,14.36,14.36,0,0,1-1.42,2.79c-.13.19-.63,1-.9,1-1.09.05-4.62.2-6.22.38a8.28,8.28,0,0,0-5.21,2.4s4.17,13.11,4.41,19.8-4.44,21.51-4.44,21.51l28.79-.07a138.36,138.36,0,0,1-3.28-16.19C431.33,271.22,438.06,270.73,437.49,265.7Z" transform="translate(-107.57 -66.53)" style="fill:url(#335e6dbc-a806-43e7-a0ab-8ef5506a12cd)"/><path d="M427.19,300.68c3-1.74,3-36.12,3-39.28,0-12.32-.81,2-8.21-9.81-1.6-1.4-3.89-3.29-6-3.05-1.09.05-2.52.14-4.12.32a8.28,8.28,0,0,0-5.21,2.4s4.17,13.11,4.41,19.8-7.7,25.34-7.69,25.34C406.62,297.44,424,302.49,427.19,300.68Z" transform="translate(-107.57 -66.53)" style="fill:url(#df90e977-e11e-4d82-92b6-35eb53c69b7d)"/><path d="M438.14,265.7c-.31-2.76-7.67-15.34-7.67-15.34s-1-.68-3.28-.36c.05,2.39.19,4.41-1.09,6.23-3.05,4.33-5,12-4.87,17.33s-4.28,9.34-4.17,14.71c0,2,5.17,11.72,7.8,12.8.88.36,13.8-4.09,13.71-4.37-1.95-6.69-4.38-19.91-4.38-19.91C433.39,271.7,438.71,270.73,438.14,265.7Z" transform="translate(-107.57 -66.53)" style="fill:url(#1564f0d7-4e94-440e-afe9-be7880c4cf24)"/><path d="M426.1,256.23l2.57-2-1.48-6.09S426,256.1,426.1,256.23Z" transform="translate(-107.57 -66.53)" style="fill:url(#c8d9474b-6953-4733-9b86-a09563c9c38b)"/><polygon points="319.62 181.57 321.1 187.66 325.39 188.5 319.62 181.57" style="fill:url(#fb9d0c80-623a-4b16-8a8f-7217a89afd03)"/><polygon points="309.16 181.82 313.51 190.05 317.22 187.03 310.19 181.14 309.16 181.82" style="fill:url(#44ea26c0-84f2-4972-b8cf-39e9c519fc62)"/><polygon points="317.22 187.03 318.53 189.7 315.84 188.15 317.22 187.03" style="fill:url(#9206ba28-18ba-4fca-9a42-3e0407293c1e)"/><path d="M426.21,233.9a4.69,4.69,0,0,1-.66,4.68,12.21,12.21,0,0,1-2.58,2.11,7,7,0,0,0-3,4.91c-.08.67-.24,1.75.25,2.28a15.18,15.18,0,0,0,1.77,1.53c1.82,1.45,5,2.87,7.2,1.34l.05,0a5.87,5.87,0,0,0,1.55-2.05,9.19,9.19,0,0,0,1.38-2.37c.2-.82.57-1.59.76-2.42a28.54,28.54,0,0,0,.67-4.32c.05-.93.27-1.91-.48-2.55a8.53,8.53,0,0,0-2.41-1.35C429.22,235.08,427.46,234.94,426.21,233.9Z" transform="translate(-107.57 -66.53)" style="fill:url(#bc4565e8-1de7-40d3-ae1d-95e4da61b09f)"/><path d="M431.9,241.51l-2.15,5,1.75.76a.69.69,0,0,0,1-.71Z" transform="translate(-107.57 -66.53)" style="fill:#ffb5be"/><polygon points="339.81 195.88 333.01 196.54 336.46 181.73 343.3 181.67 339.81 195.88" style="fill:url(#cf4b7e13-6940-4279-89c2-43b26a1a75b8)"/><polygon points="332.18 195.94 333.01 196.54 336.46 181.73 335.63 181.12 332.18 195.94" style="fill:url(#1feeb55a-fe0e-475a-8606-a8facedf0632)"/><polygon points="335.63 181.12 342.47 181.06 343.3 181.67 336.46 181.73 335.63 181.12" style="fill:url(#3af48a79-1251-49ee-9d8c-87f42cc19bd1)"/><path d="M423.41,281.63c-.55.6-7.29-5.61-7.93-6.22-2.82-2.69-18.15-24.64-7-25.5,1.7-.13,2.84.87,3.92,1.8,4.87,4.2,15.55,21,15.55,21Z" transform="translate(-107.57 -66.53)" style="fill:#fdfdfe"/><path d="M424.91,281.57s-2.35-8.19,3-10.06l-.67-1a7.28,7.28,0,0,0-4.08,1.46c-.95.76-4.35,4.23-3.67,8.41.05.32,3.79,1.39,3.79,1.39Z" transform="translate(-107.57 -66.53)" style="fill:#fdfdfe"/><path d="M448.47,259.92a2.34,2.34,0,0,0-.61-1.24,1.69,1.69,0,0,1-.11-1.27c.07-.69-.51-.79-1.05-1.16-.12-.09.11-1.19.13-1.33a8.15,8.15,0,0,0,.18-1.38c-.05-.64-.68-.73-1.27-.77l-3.08,4c-.12-.57-.37-1.66-.6-2.5-.33-1.17-1.57-.48-1.57-.48a4.29,4.29,0,0,1,.24,2.28l-.51,1.87-.81,2.93L438,263.57s-13.9,8.62-15.06,11.85c-.49,1.37-1.08,3.6,0,4.8,5,5.56,12-4.34,13.86-6.89.77-1,1.56-2.08,2.36-3.1a15.87,15.87,0,0,1,2.45-3l2.81-2.12,2.29-1.72a2.56,2.56,0,0,0,1-1.39,13.14,13.14,0,0,0,.79-1.86A1.37,1.37,0,0,0,448.47,259.92Z" transform="translate(-107.57 -66.53)" style="fill:url(#369eb584-38d3-4a82-a279-d404cb49c2a6)"/><path d="M450.29,201H486.8A4.2,4.2,0,0,1,491,205.2v27.32a4.21,4.21,0,0,1-4.19,4.19H466.6l-12.86,10.92V236.71h-3.45a4.21,4.21,0,0,1-4.19-4.19V205.2A4.2,4.2,0,0,1,450.29,201Z" transform="translate(-107.57 -66.53)" style="fill:url(#63c383ed-af1d-4d24-803b-980fcf327175)"/><path d="M461.17,213.35c0,4.46,8.06,17.23,8.06,17.23s8.07-12.77,8.07-17.23a8.07,8.07,0,0,0-16.13,0Zm3.42,0a4.65,4.65,0,1,1,4.64,4.65A4.65,4.65,0,0,1,464.59,213.35Z" transform="translate(-107.57 -66.53)" style="fill:#fff"/><rect x="376.77" y="257.51" width="3.39" height="48.89" transform="translate(-64.7 -116.41) rotate(7.99)" style="fill:url(#b9ba052d-b0b4-4fca-a340-aec35018a261)"/><rect x="363.81" y="261.35" width="32.39" height="17.08" transform="translate(611.22 523.45) rotate(-172.01)" style="fill:url(#c53f8d5f-5453-408b-ade2-90ae372db961)"/><path d="M368.4,267.09l-.17,1.22,1.76.25-.06.43-1.77-.25-.19,1.42-.51-.07.5-3.51,2.48.35-.07.44Z" transform="translate(-107.57 -66.53)" style="fill:#fff"/><path d="M370.57,268.74a1.89,1.89,0,1,1,1.62,2.06A1.8,1.8,0,0,1,370.57,268.74Zm3.24.45a1.35,1.35,0,0,0-1.18-1.54,1.36,1.36,0,1,0,1.18,1.54Z" transform="translate(-107.57 -66.53)" style="fill:#fff"/><path d="M377.18,271.46l-.61-1.19-.22,0-.87-.12-.15,1.07-.5-.07.49-3.51,1.37.19c.92.13,1.41.67,1.3,1.43a1.14,1.14,0,0,1-.93,1l.67,1.29Zm.31-2.29c.07-.5-.23-.84-.87-.93l-.86-.12-.22,1.58.86.12C377,269.91,377.42,269.67,377.49,269.17Z" transform="translate(-107.57 -66.53)" style="fill:#fff"/><path d="M379.57,271.38l.24-.36a1.88,1.88,0,0,0,1.1.57c.61.08.9-.12.95-.42.12-.86-2.09-.62-1.9-1.92.07-.54.56-.95,1.48-.82a2.17,2.17,0,0,1,1.09.47l-.23.38a1.75,1.75,0,0,0-.92-.42c-.59-.08-.89.13-.93.44-.12.86,2.08.62,1.9,1.91-.07.53-.57.93-1.5.8A2.08,2.08,0,0,1,379.57,271.38Z" transform="translate(-107.57 -66.53)" style="fill:#fff"/><path d="M385.31,271.7l-1.86-.26-.51.83-.52-.08,2.08-3.28.5.07,1.1,3.73-.52-.07Zm-.12-.42-.51-1.83-1,1.62Z" transform="translate(-107.57 -66.53)" style="fill:#fff"/><path d="M387.12,269.27l.5.07-.43,3.08,1.9.27-.06.43-2.4-.34Z" transform="translate(-107.57 -66.53)" style="fill:#fff"/><path d="M392.22,273.12l-.06.44-2.55-.36.5-3.51,2.47.35-.06.44-2-.28-.15,1.08,1.76.24-.06.43-1.76-.25-.16,1.14Z" transform="translate(-107.57 -66.53)" style="fill:#fff"/><path d="M379,309.63l-19.31-21.29,3.57.9,3.14,4,.39-3.14c12.41,4.6,14.11,15,14.25,19.5Z" transform="translate(-107.57 -66.53)" style="fill:url(#65565eb9-d4f8-437e-b706-6902f5a88d7a)"/><path d="M369.29,309.63a16.82,16.82,0,0,1-8.41-10l2.62-.63-3.05-.77a28.52,28.52,0,0,1-.81-9.87L379,309.63Z" transform="translate(-107.57 -66.53)" style="fill:url(#36495ab2-6dcd-4a20-984c-996f674ac31e)"/><path d="M372.52,309.63l19.31-21.29-3.58.9-3.14,4-.38-3.14c-12.41,4.6-14.12,15-14.25,19.5Z" transform="translate(-107.57 -66.53)" style="fill:url(#030c4b3f-5863-4558-8275-427ea353eaba)"/><path d="M382.18,309.63a16.89,16.89,0,0,0,8.41-10L388,299l3.05-.77a28.68,28.68,0,0,0,.82-9.87l-19.31,21.29Z" transform="translate(-107.57 -66.53)" style="fill:url(#634b9ce0-3070-478d-9b90-072caa246069)"/><path d="M205.53,302.24v-4.13H183.21v4.18h0s0,0,0,0c0,1.6,5,2.9,11.17,2.9s11.17-1.3,11.17-2.9C205.55,302.3,205.53,302.27,205.53,302.24Z" transform="translate(-107.57 -66.53)" style="fill:url(#340aea0b-c150-4894-970c-461b0fff9329)"/><path d="M205.55,298.17c0,1.6-5,2.9-11.17,2.9s-11.17-1.3-11.17-2.9,5-2.91,11.17-2.91S205.55,296.56,205.55,298.17Z" transform="translate(-107.57 -66.53)" style="fill:url(#d8fab30c-6a9e-48c0-a0cd-3f7ac5a5d3cd)"/><path d="M203.54,298c0,1.32-4.1,2.38-9.16,2.38s-9.16-1.06-9.16-2.38,4.1-2.38,9.16-2.38S203.54,296.67,203.54,298Z" transform="translate(-107.57 -66.53)" style="fill:url(#3ae95850-3678-496d-a7f7-3f48c13d0760)"/><path d="M198.58,297.42a9.8,9.8,0,0,1-4.2.75c-3.19,0-4.2-.75-4.2-.75V223.79h8.4Z" transform="translate(-107.57 -66.53)" style="fill:url(#d90d1c94-c3ab-4134-a2a3-3e2fa5505452)"/><path d="M198.58,287.1s-8-41.3-5-54.54c1.68-7.35-3.41-8.77-3.41-8.77h8.4Z" transform="translate(-107.57 -66.53)" style="opacity:0.30000000000000004;mix-blend-mode:multiply;fill:url(#031595dc-496b-4922-8278-484648fe2596)"/><path d="M195.59,247.54H192c-22,0-36.46-23.83-27-44.47l20.38-44.58a8.8,8.8,0,0,1,16.11-.11l20.95,44.31C232.22,223.37,217.75,247.54,195.59,247.54Z" transform="translate(-107.57 -66.53)" style="fill:url(#5b0d5836-1a7e-4be6-871b-d3b00251dc0a)"/><path d="M230.58,337l.06-.27c.42-2-.4-4.11-1.09-5.91-5-13-11.41-26.07-17.53-38.55-1-2.09-1.75-4.43-4.3-4.77a9.92,9.92,0,0,0-5.79,1.53,15.67,15.67,0,0,0-5.21,4.12,13.21,13.21,0,0,0-2.37,7.56c-.19,6.29,2.68,12.27,6.07,17.58a90.41,90.41,0,0,0,12.07,15c3.48,3.44,7.31,8.13,12.74,7.37C227.41,340.36,229.91,339.27,230.58,337Z" transform="translate(-107.57 -66.53)" style="fill:url(#943d3c01-ecb5-419f-8746-eb4f515db805)"/><path d="M245.56,394.34l-.08-.06a5.57,5.57,0,0,0-.95-.66l.37.14-.38-.15a11.18,11.18,0,0,0-2.31-.9l-.76-.22-2.55-.91-.14-.06c-.51-.39-5.95-4.19-8.21-6.23l-.19-.18a41,41,0,0,1-.2-7.16l-8.33-.24a36.42,36.42,0,0,1,.86,7.69,5.86,5.86,0,0,1-.47,1c-.11.18-.22.36-.32.54s-.22.37-.31.56a19.63,19.63,0,0,0-.84,1.8,8.61,8.61,0,0,0-.33,2.2c0,.24,0,.49,0,.73a2.9,2.9,0,0,0,.27,1.4,3,3,0,0,0,1.8,1.22c1.45.47,3,.67,4.44,1.07,2.71.73,5.43,1.87,8.24,2.38,3.11.58,6.27.1,9.41.08.83,0,2.1-.26,2.36-1.18S246.19,394.93,245.56,394.34Z" transform="translate(-107.57 -66.53)" style="fill:url(#2953581c-9424-41ba-ba01-7d9fa1371863)"/><path d="M247,396.83a1.73,1.73,0,0,0,0-.38,3.17,3.17,0,0,0-.14-.4,2.93,2.93,0,0,0-.19-.4l-.12-.2a4.79,4.79,0,0,0-.58-.78l-.18-.2h0l-.12-.12-.08-.06-.3-.24-.13-.09a.78.78,0,0,0-.15-.1l-.37-.23.37.14-.38-.15a8.86,8.86,0,0,0-1.13-.51l-.54-.19-.09,0-.55-.17-.76-.22-2.55-.91-.08,0-.06,0c-.41-.31-4.55-3.47-7.39-5.78-1.86,2.59-7,2.81-9.68,1a4.44,4.44,0,0,1-.36.67c-.23.49-.56.93-.77,1.44l-.09.26a4.75,4.75,0,0,0-.14.54c0,.14-.06.29-.08.43s-.06.4-.08.59,0,.21,0,.31c0,.51-.06,1-.06,1.23a6,6,0,0,0,0,.73s0,.11,0,.17a1.78,1.78,0,0,0,.19.5,1.59,1.59,0,0,0,.33.44l.21.18a4.33,4.33,0,0,0,1.26.61c.73.23,1.79.4,2.53.56l1.12.24q.56.12,1.11.27c1.18.32,2.37.72,3.57,1.11.85.28,1.71.55,2.58.79.69.19,1.39.35,2.09.48l.59.1.58.07c.38,0,.75.07,1.13.09l.63,0c.59,0,1.18,0,1.77,0,1.57,0,3.14-.17,4.71-.18a4.49,4.49,0,0,0,.86-.09,1.81,1.81,0,0,0,1.5-1.09,1.55,1.55,0,0,0,0-.37Zm-5.54-4.35-.62-.18h0a12,12,0,0,1-1.84-.7h0Z" transform="translate(-107.57 -66.53)" style="fill:url(#75e0fd8f-73f3-470b-a1ef-eb8a2f808993)"/><path d="M228.43,331.16a3.36,3.36,0,0,1,.74.48c1.1,1,1.2,3,1.26,4.38.21,4.94.45,46.85.45,46.85h-9.16c-1.17-4-2.07-8.13-2.86-12.23a108,108,0,0,1-2.35-24.84c.21-5.2.43-10.81,5.27-13.89A7.2,7.2,0,0,1,228.43,331.16Z" transform="translate(-107.57 -66.53)" style="fill:url(#15516047-1499-4b85-9654-5aa585644ef4)"/><path d="M211.63,282.47a15.64,15.64,0,0,1-3-3.4,45.73,45.73,0,0,1-4.7-11.56,61.61,61.61,0,0,1-1.89-10c-.3-3-1.9-12.86,4.36-11.58a5.13,5.13,0,0,1,3.32,2.78c3.09,5.66,7.43,27.38,7.43,27.38Z" transform="translate(-107.57 -66.53)" style="fill:#fff"/><path d="M235.24,254.37l8.44-5.34a3,3,0,0,1-.06,2.36c-.62.91-.49,1.82-.93,2.7s-.52,3.35-1.61,4.61-3.65,1.23-4.78,2.36-3.35,3.7-3.35,3.7l-4-4.15,3.19-3.31s.72-5.16,4.09-7.14Z" transform="translate(-107.57 -66.53)" style="fill:url(#43ca2e8a-e1f8-4b08-a5e2-970e50022753)"/><path d="M214.21,284.32s-5.59-5-2.46-9.11,19.18-17.06,19.18-17.06l3.81,4.93S220,283.74,214.21,284.32Z" transform="translate(-107.57 -66.53)" style="fill:#fff"/><path d="M191.13,342.58l.21-.17c1.5-1.33,2.1-3.56,2.62-5.41,3.69-13.4,6.23-27.77,8.68-41.45.41-2.29,1.21-4.6-.65-6.39a10,10,0,0,0-5.57-2.2,15.75,15.75,0,0,0-6.63.24,13.21,13.21,0,0,0-6.39,4.7c-3.88,5-5.1,11.47-5.51,17.75a89.8,89.8,0,0,0,.84,19.25c.77,4.84,1.08,10.88,5.91,13.49C186.57,343.44,189.23,344,191.13,342.58Z" transform="translate(-107.57 -66.53)" style="fill:url(#5edce5b7-1245-48e6-b4be-f35ba38332c5)"/><path d="M202.48,395.73l-.08-.07a6.18,6.18,0,0,0-1-.67l.39.14-.4-.14a11.67,11.67,0,0,0-2.46-.9l-.81-.2-2.7-.89-.15-.07c-.55-.4-6.38-4.25-8.82-6.34a1.8,1.8,0,0,1-.2-.19,42.59,42.59,0,0,1-.4-7.53l-8.79,0s1.28,5.28,1.11,8.08a5.21,5.21,0,0,1-.47,1.09c-.11.19-.22.38-.32.58a5.65,5.65,0,0,0-.31.6,18.28,18.28,0,0,0-.84,1.92,8.63,8.63,0,0,0-.29,2.32c0,.25,0,.51,0,.77a3,3,0,0,0,.32,1.47,3.17,3.17,0,0,0,1.93,1.24c1.54.45,3.15.62,4.71,1,2.87.71,5.77,1.83,8.74,2.3,3.3.52,6.61-.06,9.92-.17.87,0,2.21-.33,2.45-1.31S203.17,396.32,202.48,395.73Z" transform="translate(-107.57 -66.53)" style="fill:url(#ff692c13-34ba-494b-9796-2ce6032d6b15)"/><path d="M204,398.31a2,2,0,0,0-.07-.4,3.52,3.52,0,0,0-.15-.42,4.23,4.23,0,0,0-.22-.42l-.12-.2a6,6,0,0,0-.64-.81l-.2-.2h0l-.13-.12-.08-.07a2.43,2.43,0,0,0-.32-.24l-.14-.1-.16-.1c-.13-.08-.26-.16-.4-.23l.39.14-.4-.14a9.06,9.06,0,0,0-1.2-.52c-.19-.06-.38-.13-.58-.18l-.09,0-.59-.17-.81-.2-2.7-.89-.09,0-.06,0c-.44-.31-4.9-3.53-7.94-5.89-1.89,2.78-7.28,3.15-10.18,1.34a3.65,3.65,0,0,1-.36.71c-.23.53-.57,1-.77,1.54l-.09.28a4.93,4.93,0,0,0-.13.58c0,.14-.06.3-.08.45s0,.42-.07.62,0,.22,0,.33c0,.54,0,1,0,1.3a4.88,4.88,0,0,0,.07.76,1.16,1.16,0,0,0,0,.18,2,2,0,0,0,.21.53,2,2,0,0,0,.36.45l.23.18a4.53,4.53,0,0,0,1.34.61c.77.23,1.9.38,2.69.53l1.18.22,1.18.25c1.25.31,2.51.7,3.79,1.08.9.27,1.82.53,2.74.76.73.18,1.47.34,2.21.46l.62.08c.21,0,.41.05.62.06.4,0,.8.05,1.2.06h.66c.62,0,1.24,0,1.86-.06,1.65-.1,3.3-.27,5-.32a4.29,4.29,0,0,0,.9-.12,1.88,1.88,0,0,0,1.55-1.19,1.29,1.29,0,0,0,0-.39Zm-6-4.44-.65-.17h-.06a12.87,12.87,0,0,1-1.95-.69h0Z" transform="translate(-107.57 -66.53)" style="fill:url(#5c1d9130-05e0-4fed-81a8-ac8b8d18081f)"/><path d="M191.93,331a3.13,3.13,0,0,1,.69.62c1,1.23.78,3.31.63,4.75-.56,5.19-6.57,47.07-6.57,47.07l-9.83.41c-.59-4.37-.88-8.79-1.07-13.19a114.31,114.31,0,0,1,1.43-26.26c1-5.39,2.14-11.21,7.67-13.66C187,329.77,189.91,329.6,191.93,331Z" transform="translate(-107.57 -66.53)" style="fill:url(#606698a5-767d-4136-811b-aab1621e583e)"/><path d="M209.31,248.28c-.76-3.73-9.73-7.59-11.91-7.62l.85,7.11-11.7-6.68a47,47,0,0,0-4.21,2.48c-6.46,3.91-6.57,11.69-5.72,18.36.5,4,2.08,7.72,2.64,11.76a56.91,56.91,0,0,1,.06,15c-.38,2.88-.75,6.38,1.54,8.17a8.44,8.44,0,0,0,3.5,1.26c6.64,1.24,21.22,4.22,25.52-3.28a21.65,21.65,0,0,0,2.19-8.25c.61-5.66-.08-11.35-.48-17C211.09,262.43,210.73,255.32,209.31,248.28Z" transform="translate(-107.57 -66.53)" style="fill:url(#e8c21042-ebd7-4995-97e0-1e2a1b2b30ed)"/><polygon points="92.74 179.15 91.54 186.05 87.58 179.96 89.61 179.64 90.68 181.24 90.43 179.51 92.74 179.15" style="fill:url(#e2afb9c1-2d21-4913-875a-03c6bce1df33)"/><polygon points="91.68 184.09 90.47 184.25 92.48 212.57 96.28 215.45 98.72 211.37 91.68 184.09" style="fill:url(#b5379260-cb88-4e5b-a4d2-dbc4a1833059)"/><path d="M196.48,233.51c.2,1.34.4,2.67.59,4,0,0,1.88,9.31,1.18,10.25,0,0-9.39-4.8-9.91-6.94l-1.12-10.72Z" transform="translate(-107.57 -66.53)" style="fill:url(#9f0f52c9-a9ae-487b-a879-9d584431b574)"/><path d="M186.34,220.86l1,4.45,1.57,6.8.44,1.91c6.62,5.67,13.8,4,15.23.89s-2.45-18.77-2.45-18.77Z" transform="translate(-107.57 -66.53)" style="fill:url(#a7a6e45f-d748-4252-8fb3-40923818094e)"/><path d="M201.74,224l.61,6.1,2.68-.27a.47.47,0,0,0,.34-.74Z" transform="translate(-107.57 -66.53)" style="fill:url(#da90ac79-2af3-4925-b7a3-932504c91677)"/><path d="M190.06,220.24l-.22,0a1.07,1.07,0,0,0-.65,1,12,12,0,0,0,.6,2.8c.26,1.11.36,2.28.52,3.41l-2.6-2.7c0,.84,0,1.68.07,2.53a7.65,7.65,0,0,1,.11,1.84c-.18.53-1,.61-1.47.5a3.35,3.35,0,0,1-1.57-1,13.73,13.73,0,0,1-4.11-8.27,11.71,11.71,0,0,1,.63-4.94,5.7,5.7,0,0,1,2.82-3.06,18.89,18.89,0,0,1,11.53-2.26.76.76,0,0,1-.53-.86,1.17,1.17,0,0,1,.68-.82,2.47,2.47,0,0,1,1.08-.2c3.64-.07,7.45,3,7.44,6.76a4.76,4.76,0,0,1-2.87,4.54,5.07,5.07,0,0,1-2.68.08c-1.69-.34-3.39-1.17-5.06-.75a3.6,3.6,0,0,0-2.44,2.18C191,220.69,190.55,220.23,190.06,220.24Z" transform="translate(-107.57 -66.53)" style="fill:url(#b5abcdc4-ec9f-43c2-8b9d-ececbd6eb945)"/><path d="M184.65,225.14c-1,1.91.27,5.44,4.07,6l-1-6.36A2,2,0,0,0,184.65,225.14Z" transform="translate(-107.57 -66.53)" style="fill:url(#78e900c2-2622-4788-be32-d17e28a37781)"/><path d="M198.25,247.77l2.49-2.51-3.5-6.79S198.1,247.65,198.25,247.77Z" transform="translate(-107.57 -66.53)" style="fill:url(#64275706-e293-484c-b2ed-77622ac0474a)"/><polygon points="89.67 171.94 93.16 178.72 97.88 179.03 89.6 171.41 89.67 171.94" style="fill:url(#21c40eeb-6434-4d92-b561-23d37347acf8)"/><polygon points="78.05 174.72 84.67 183.2 88.91 178.58 80.2 172.55 78.05 174.72" style="fill:url(#35d123a0-d76f-4759-9e0b-40a473735b77)"/><polygon points="88.91 178.58 90.68 181.24 87.58 179.96 88.91 178.58" style="fill:url(#5c3c50a7-5516-4f2c-bf0c-152c4de407c0)"/><path d="M178.75,286.36a16.71,16.71,0,0,1-2.49-4.27,48.67,48.67,0,0,1-2.58-13.32,64.66,64.66,0,0,1,.14-11c.32-3.22.74-14,7.27-11.24a5.7,5.7,0,0,1,3,3.71c2.12,6.69,2.09,30.66,2.09,30.66Z" transform="translate(-107.57 -66.53)" style="fill:#fff"/><path d="M286.23,217c7.29-18.84,2.61-38.94-10.26-49.81l.68-1.74-10.41-4h0c-19.86-7.61-43.12,4.78-52,27.73s0,47.85,19.89,55.54c.36.14.72.26,1.08.38l9.24,3.58.67-1.71C262,247.56,278.94,235.84,286.23,217Z" transform="translate(-107.57 -66.53)" style="fill:url(#e61f3527-b6f1-4e51-a8f1-dba840735e95)"/><ellipse cx="259.61" cy="206.7" rx="44.62" ry="38.59" transform="translate(-134.42 307.7) rotate(-68.85)" style="fill:url(#b0a6066f-5689-4d18-8eaa-b9dd7afb5561)"/><ellipse cx="260.07" cy="207.74" rx="33.77" ry="29.21" transform="translate(-135.09 308.79) rotate(-68.85)" style="fill:url(#e3673b61-f02c-4c9b-9fe2-70932476793a)"/><ellipse cx="258.22" cy="207.03" rx="33.77" ry="27.57" transform="translate(-135.6 306.62) rotate(-68.85)" style="fill:url(#a3c08209-953b-4537-915f-d18612c907f4)"/><path d="M270.41,175.53c-7.38-2.85-15.5-1.61-22.54,2.66,18.88,6.53,40.39,22.05,19.74,58.23A37.73,37.73,0,0,0,283.93,217C290.66,199.58,284.61,181,270.41,175.53Z" transform="translate(-107.57 -66.53)" style="fill:url(#269d3e10-397c-4173-b074-d11eadecf4b9)"/><path d="M270.41,175.53c-7.38-2.85-15.5-1.61-22.54,2.66,18.88,6.53,40.39,22.05,19.74,58.23A37.73,37.73,0,0,0,283.93,217C290.66,199.58,284.61,181,270.41,175.53Z" transform="translate(-107.57 -66.53)" style="mix-blend-mode:overlay;fill:url(#3fe30057-1184-4c41-9aa0-b97f567d9a9c)"/><path d="M207,292.74h12.59a0,0,0,0,1,0,0v33.18a3.94,3.94,0,0,1-3.94,3.94h-4.7a3.94,3.94,0,0,1-3.94-3.94V292.74A0,0,0,0,1,207,292.74Z" transform="translate(19.12 -122.52) rotate(21.15)" style="fill:url(#52283cbf-5574-491a-8fd2-bfcc50cedabe)"/><path d="M225.84,296.31c-.46,1.16-3.46,1.06-6.69-.23s-5.49-3.27-5-4.43,3.46-1.07,6.69.22S226.31,295.14,225.84,296.31Z" transform="translate(-107.57 -66.53)" style="fill:url(#2914bb8d-2857-48ce-95dc-31007bd97cda)"/><path d="M243.47,247.64l.07-.17,0,0-.06.14Z" transform="translate(-107.57 -66.53)" style="fill:url(#25a877eb-82f7-4c13-bc9b-d404257e98cf)"/><path d="M243.43,247.43l-.11,0h0Z" transform="translate(-107.57 -66.53)" style="fill:url(#84cdbf73-26a6-4f00-be10-de787b066d7e)"/><path d="M233.72,243.67l-.07.18.2,0C233.76,243.75,233.71,243.7,233.72,243.67Z" transform="translate(-107.57 -66.53)" style="fill:url(#d7936c2a-b2aa-4c7f-93f1-3e3a1ad95491)"/><path d="M213.62,313.68a2,2,0,0,0,.66.43c1.43.56,3.26-.64,4.41-2.74A5.26,5.26,0,0,1,213.62,313.68Z" transform="translate(-107.57 -66.53)" style="opacity:0.5;mix-blend-mode:overlay;fill:url(#e161a0c5-0d15-4f35-b577-11ec477ba274)"/><path d="M243.5,247.45l-.07,0,.07,0Z" transform="translate(-107.57 -66.53)" style="opacity:0.5;mix-blend-mode:overlay;fill:url(#3da53f54-dcda-468c-a91f-c8f57af43335)"/><path d="M243.44,247.59l.06-.14-.07,0-.11,0Z" transform="translate(-107.57 -66.53)" style="fill:url(#e6920826-ee7f-4c6a-b799-6d1e1a564105)"/><path d="M243.44,247.59l.06-.14-.07,0-.11,0Z" transform="translate(-107.57 -66.53)" style="opacity:0.5;mix-blend-mode:overlay;fill:url(#6d268f43-009a-4c13-bcd2-3af70ddc8d67)"/><path d="M237.53,245.14c0,.09.23.25.65.44,2.18.79,4.46,1.58,5.14,1.81a7.15,7.15,0,0,0-4.15-3.19,10.84,10.84,0,0,0-5.32-.39,29.5,29.5,0,0,0,3.62,1.5Z" transform="translate(-107.57 -66.53)" style="fill:url(#4df02f46-5efa-434b-915e-31332a31cf16)"/><path d="M243.44,247.59l-18.95,49h0l18.93-48.93Z" transform="translate(-107.57 -66.53)" style="fill:url(#eeb374ce-10b3-4c03-a652-d0ca6db7a3a9)"/><path d="M243.44,247.59l-18.95,49h0l18.93-48.93Z" transform="translate(-107.57 -66.53)" style="fill:url(#c07ebc20-b49c-4f08-b506-f9fc35c8d140)"/><path d="M218.27,294.92l19.2-49.61a29.5,29.5,0,0,1-3.62-1.5l-.2,0-18.74,48.44A8.67,8.67,0,0,0,218.27,294.92Z" transform="translate(-107.57 -66.53)" style="fill:url(#750f331d-94d0-41b0-9af9-b29d974bf690)"/><path d="M243.32,247.4h0c-.68-.23-3-1-5.14-1.81C239.53,246.19,242.59,247.16,243.32,247.4Z" transform="translate(-107.57 -66.53)" style="fill:url(#f6921ca2-27ed-42a2-8768-4c6a4e41a9fb)"/><path d="M243.32,247.4h0c-.68-.23-3-1-5.14-1.81C239.53,246.19,242.59,247.16,243.32,247.4Z" transform="translate(-107.57 -66.53)" style="fill:url(#31ef5448-c0c7-40fd-a891-38231ed042d8)"/><path d="M237.53,245.14l-.06.17.71.27C237.76,245.39,237.5,245.23,237.53,245.14Z" transform="translate(-107.57 -66.53)" style="opacity:0.5;mix-blend-mode:overlay;fill:url(#1bd7b536-356b-47ec-88a4-746bfd26840d)"/><path d="M237.53,245.14l-.06.17.71.27C237.76,245.39,237.5,245.23,237.53,245.14Z" transform="translate(-107.57 -66.53)" style="fill:url(#9422a173-377f-4904-be6d-a148610903dd)"/><path d="M238.18,245.58l-.71-.27-19.2,49.61c.45.22.91.44,1.4.64a12.67,12.67,0,0,0,4.82,1l18.95-49-.12-.19C242.59,247.16,239.53,246.19,238.18,245.58Z" transform="translate(-107.57 -66.53)" style="fill:url(#56c35188-0291-4fbe-999c-da04688fa9c9)"/><path d="M238.18,245.58l-.71-.27-19.2,49.61c.45.22.91.44,1.4.64a12.67,12.67,0,0,0,4.82,1l18.95-49-.12-.19C242.59,247.16,239.53,246.19,238.18,245.58Z" transform="translate(-107.57 -66.53)" style="opacity:0.5;mix-blend-mode:overlay;fill:url(#fadfc5f4-204c-42f1-987f-8ee8e6430f14)"/><path d="M213.81,280.4l3.28.13a8.11,8.11,0,0,1,2.31-2.65c1.26-.73,1.09-1.42,1.09-1.42s2.45-.6.63,3.11l9-.63s.29,1.42-.24,2a12.46,12.46,0,0,0-1.12,1.56s-1.85,3.28-2.62,3.58-6.75,1.22-7.94.76a12.47,12.47,0,0,1-2.08-1.06l-3.31.1" transform="translate(-107.57 -66.53)" style="fill:url(#f4f79281-991b-4d2a-bcdc-a5ce97772fa9)"/><path d="M178.77,286.37s-.34-8.54,5.29-9.17,15,2.06,31.67,2.4l-.95,7S183.7,290.66,178.77,286.37Z" transform="translate(-107.57 -66.53)" style="fill:#fff"/><ellipse cx="103.29" cy="330.62" rx="58.81" ry="7.77" style="opacity:0.14;mix-blend-mode:multiply;fill:url(#d2c735f3-2620-4007-bbb3-9f26fb1c0489)"/><path d="M565.79,121c8.63,0,8.65-13.42,0-13.42s-8.65,13.42,0,13.42Z" transform="translate(-107.57 -66.53)" style="fill:url(#01d3a8f2-ee6d-4ca9-a20e-ce298e5ade02)"/><path d="M445.73,99.31c13.81,0,13.84-21.47,0-21.47s-13.84,21.47,0,21.47Z" transform="translate(-107.57 -66.53)" style="fill:url(#e43de0f4-2c41-4ed9-a188-7a5c22ef7fa2)"/><path d="M614.89,204.36c13.82,0,13.84-21.47,0-21.47s-13.84,21.47,0,21.47Z" transform="translate(-107.57 -66.53)" style="fill:url(#11b97dff-ee73-4f78-b180-f233cb11bd0c)"/><path d="M188.74,87.92h2.11A9.68,9.68,0,0,0,197,85.37a6.56,6.56,0,0,0,1.81-2.81,6.69,6.69,0,0,0,.75-3.36c-.11-.77-.21-1.54-.31-2.32A8.79,8.79,0,0,0,197,73a9.06,9.06,0,0,0-6.16-2.55h-2.11A9.68,9.68,0,0,0,182.58,73a6.56,6.56,0,0,0-1.81,2.81A6.69,6.69,0,0,0,180,79.2c.11.77.21,1.55.31,2.32a8.79,8.79,0,0,0,2.25,3.85,9,9,0,0,0,6.16,2.55Z" transform="translate(-107.57 -66.53)" style="fill:url(#dcdc6933-6591-4ecc-9f16-d2a55c076f2a)"/><path d="M200.32,135.72c5.18,0,5.19-8,0-8s-5.19,8,0,8Z" transform="translate(-107.57 -66.53)" style="fill:url(#d53f6d11-ea1e-4d79-af0b-37cf81f6ac93)"/><path d="M500.35,88.58c8.64,0,8.65-13.42,0-13.42s-8.65,13.42,0,13.42Z" transform="translate(-107.57 -66.53)" style="fill:url(#885c53cf-9551-4da4-a3b7-a142ad4146c2)"/><path d="M116.65,152.41c12.09,0,12.11-18.78,0-18.78s-12.11,18.78,0,18.78Z" transform="translate(-107.57 -66.53)" style="fill:url(#8bf6d14c-6016-458b-8b99-83ccc17f587a)"/></g></g></svg>