<svg id="71520bff-24a8-47fc-a3ef-9cd0841b2cd2" data-name="Layer 2" xmlns="http://www.w3.org/2000/svg" viewBox="0 0 185.9 185.9"><title>logo_regular_bw</title><circle cx="92.95" cy="92.95" r="90" style="fill:none;stroke:#231f20;stroke-width:5.90053242850944px"/><path d="M168,157.76l-6.55,8.74a2.75,2.75,0,0,1-2.37,1c-10.54-.73-27.46-7.54-27.46-7.54l-16.38-5.39a36.49,36.49,0,0,1-3.54-1.45,1.56,1.56,0,0,0-1.6,0,37.55,37.55,0,0,1-3.54,1.45L90.19,160s-16.92,6.81-27.46,7.54a2.75,2.75,0,0,1-2.37-1l-6.55-8.74c-1-1.33-.07-3.08,1.75-3.34,6.44-.89,12.52-2.28,14.92-4.79l26.06-27.09a2,2,0,0,0,.3-2.4,1.64,1.64,0,0,0-.29-.36L71.14,93.1c-2.37-2.49-8.8-3.94-15.09-4.74-1.83-.24-2.77-2-1.78-3.34l6.54-8.79a2.73,2.73,0,0,1,2.36-1l42.4,14.87a5.29,5.29,0,0,1-.06-.8V87.06a5.39,5.39,0,0,0-2.45-4.52l-19.94-13c-2.82-1.71-4.26-5.43-5-9.17a4.54,4.54,0,0,1,2.56-5l1-.5A4.57,4.57,0,0,1,88,57.5a12.66,12.66,0,0,0,.7,1.53,4.51,4.51,0,0,0,3.15,2.23l17.6,3.17a6.24,6.24,0,0,0,1,.08h1a6,6,0,0,0,1-.08L130,61.26A4.51,4.51,0,0,0,133.15,59a12.66,12.66,0,0,0,.7-1.53A4.56,4.56,0,0,1,140,54.91l1.06.5a4.54,4.54,0,0,1,2.56,5c-.69,3.74-2.13,7.46-5,9.17l-19.94,13a5.39,5.39,0,0,0-2.45,4.52v2.23a5.29,5.29,0,0,1-.06.8l42.4-14.87a2.73,2.73,0,0,1,2.36,1L167.55,85c1,1.34,0,3.1-1.78,3.34-6.29.8-12.73,2.25-15.09,4.74l-25.41,26.68a1.39,1.39,0,0,0-.29.36,1.94,1.94,0,0,0,.3,2.4l26.06,27.09c2.4,2.51,8.48,3.9,14.92,4.79C168.08,154.68,169,156.43,168,157.76Z" transform="translate(-17.75 -18.05)" style="fill:#231f20;stroke:#231f20;stroke-linecap:round;stroke-linejoin:round;stroke-width:3.9336883968272587px"/></svg>