<svg id="6b66d06a-0e99-4d41-8dee-a8b7e8edeb4f" data-name="Layer 1" xmlns="http://www.w3.org/2000/svg" xmlns:xlink="http://www.w3.org/1999/xlink" viewBox="0 0 222 222"><defs><linearGradient id="c30d6575-5b9d-416f-aa0d-21f1cdd41e1c" x1="8.9" y1="111" x2="212.51" y2="111" gradientUnits="userSpaceOnUse"><stop offset="0" stop-color="#c49a2f"/><stop offset="0.12" stop-color="#b1872d"/><stop offset="0.31" stop-color="#faf394"/><stop offset="0.41" stop-color="#e5d06d"/><stop offset="0.56" stop-color="#c49a2f"/><stop offset="0.59" stop-color="#ceaa41"/><stop offset="0.65" stop-color="#e1ca65"/><stop offset="0.7" stop-color="#efe07f"/><stop offset="0.75" stop-color="#f7ee8f"/><stop offset="0.79" stop-color="#faf394"/><stop offset="0.88" stop-color="#b1872d"/><stop offset="1" stop-color="#c49a2f"/></linearGradient><linearGradient id="5e3e7936-ae2d-4705-8535-b52783b61bfa" x1="64.68" y1="111" x2="157.32" y2="111" xlink:href="#c30d6575-5b9d-416f-aa0d-21f1cdd41e1c"/><linearGradient id="e6eb33a4-f63b-41cf-87cc-12598e951e9d" x1="41.94" y1="62.67" x2="85.41" y2="62.67" xlink:href="#c30d6575-5b9d-416f-aa0d-21f1cdd41e1c"/><linearGradient id="19df4e30-fcc3-49a8-8d9e-97affa45bf6b" x1="136.21" y1="62.67" x2="179.68" y2="62.67" xlink:href="#c30d6575-5b9d-416f-aa0d-21f1cdd41e1c"/><linearGradient id="48a8a8b5-733e-4dde-ba48-9fd9da52eb99" x1="41.94" y1="159.48" x2="85.41" y2="159.48" xlink:href="#c30d6575-5b9d-416f-aa0d-21f1cdd41e1c"/><linearGradient id="113ae0a3-006f-4b6b-aabf-4f44714f307e" x1="136.21" y1="159.48" x2="179.68" y2="159.48" xlink:href="#c30d6575-5b9d-416f-aa0d-21f1cdd41e1c"/><linearGradient id="01b8f8e9-5fc5-4bbb-8200-e20fd3f4c123" x1="20.5" y1="111" x2="51.1" y2="111" xlink:href="#c30d6575-5b9d-416f-aa0d-21f1cdd41e1c"/><linearGradient id="2a24f39a-5a6e-4459-a0d3-c0b2b9a7b573" x1="171.7" y1="111" x2="202.3" y2="111" xlink:href="#c30d6575-5b9d-416f-aa0d-21f1cdd41e1c"/><linearGradient id="f7d27643-be75-46ab-bb08-b113560f6a6e" x1="82.15" y1="111" x2="139.47" y2="111" gradientUnits="userSpaceOnUse"><stop offset="0" stop-color="#c49a2f"/><stop offset="0.12" stop-color="#b1872d"/><stop offset="0.3" stop-color="#faf394"/><stop offset="0.38" stop-color="#e5d06d"/><stop offset="0.5" stop-color="#c49a2f"/><stop offset="0.52" stop-color="#ceaa41"/><stop offset="0.57" stop-color="#e1ca65"/><stop offset="0.62" stop-color="#efe07f"/><stop offset="0.67" stop-color="#f7ee8f"/><stop offset="0.7" stop-color="#faf394"/><stop offset="0.88" stop-color="#b1872d"/><stop offset="1" stop-color="#c49a2f"/></linearGradient><linearGradient id="661089a7-79c6-4340-ae4b-43dc203b504d" x1="81.17" y1="111" x2="140.45" y2="111" xlink:href="#f7d27643-be75-46ab-bb08-b113560f6a6e"/></defs><title>logo_full_gold</title><path d="M166.89,125.8,165,122.48l-.15.09a25.32,25.32,0,0,0,2.07,3.23l4.41,7.64,18.32,31.73-42.69,24.64-21-36.28a45.42,45.42,0,0,1-30.35,0L74.69,189.81,32,165.17l18.27-31.64,5.54-9.6a24.57,24.57,0,1,1,0-25.86l.79,1.37c-.25-.47-.51-.92-.79-1.37l-5.54-9.6L32,56.83l42.7-24.64L95.63,68.47a45.42,45.42,0,0,1,30.35,0l21-36.28,42.69,24.64L171.3,88.56l-4.41,7.64a25.32,25.32,0,0,0-2.07,3.23l.15.09,1.92-3.32a24.56,24.56,0,1,1,19.59,39.36,24.46,24.46,0,0,1-13.76-4.22A24.74,24.74,0,0,1,166.89,125.8Z" transform="translate(0.29)" style="fill:none;stroke-width:2.940612588677318px;stroke:url(#c30d6575-5b9d-416f-aa0d-21f1cdd41e1c)"/><circle cx="111" cy="111" r="44.85" style="fill:none;stroke-width:2.940612588677318px;stroke:url(#5e3e7936-ae2d-4705-8535-b52783b61bfa)"/><path d="M221.7,111A111,111,0,1,1,110.7,0,111,111,0,0,1,221.7,111Z" transform="translate(0.29)" style="fill:none"/><path d="M69,42.72,83.62,68l-25.3,14.6-14.6-25.3L69,42.72m.47-1.79-1.13.66L43.07,56.19l-1.13.66L42.59,58l14.6,25.29.66,1.14L59,83.75l25.29-14.6,1.14-.66-.66-1.13L70.15,42.07l-.66-1.14Z" transform="translate(0.29)" style="fill:url(#e6eb33a4-f63b-41cf-87cc-12598e951e9d)"/><path d="M152.6,42.72l25.29,14.6-14.6,25.3L138,68l14.61-25.3m-.48-1.79-.66,1.14-14.6,25.29-.65,1.13,1.13.66,25.29,14.6,1.14.66.65-1.14L179,58l.66-1.13-1.14-.66-25.29-14.6-1.13-.66Z" transform="translate(0.29)" style="fill:url(#19df4e30-fcc3-49a8-8d9e-97affa45bf6b)"/><path d="M58.32,139.53l25.3,14.61L69,179.43l-25.3-14.6,14.6-25.3m-.47-1.78-.66,1.13-14.6,25.29-.65,1.13,1.13.66,25.29,14.6,1.13.66.66-1.14,14.6-25.29.66-1.13L84.27,153,59,138.4l-1.13-.65Z" transform="translate(0.29)" style="fill:url(#48a8a8b5-733e-4dde-ba48-9fd9da52eb99)"/><path d="M163.29,139.53l14.6,25.3-25.29,14.6L138,154.14l25.3-14.61m.48-1.78-1.14.65L137.34,153l-1.13.66.65,1.13,14.6,25.29.66,1.14,1.13-.66L178.54,166l1.14-.66-.66-1.13-14.6-25.29-.65-1.13Z" transform="translate(0.29)" style="fill:url(#113ae0a3-006f-4b6b-aabf-4f44714f307e)"/><circle cx="35.8" cy="111" r="14.65" style="fill:none;stroke-width:1.3071200847625732px;stroke:url(#01b8f8e9-5fc5-4bbb-8200-e20fd3f4c123)"/><circle cx="187" cy="111" r="14.65" style="fill:none;stroke-width:1.3071200847625732px;stroke:url(#2a24f39a-5a6e-4459-a0d3-c0b2b9a7b573)"/><path d="M139.27,134.3,136,138.66a1.37,1.37,0,0,1-1.18.5c-5.25-.37-13.69-3.76-13.69-3.76L113,132.72a18.1,18.1,0,0,1-1.76-.73,1.4,1.4,0,0,0-.4-.11,1.32,1.32,0,0,0-.4.11c-.58.26-1.16.53-1.76.73l-8.17,2.68s-8.43,3.39-13.68,3.76a1.39,1.39,0,0,1-1.19-.5l-3.26-4.36a1.06,1.06,0,0,1,.87-1.66c3.21-.44,6.24-1.14,7.44-2.39l13-13.5a1,1,0,0,0,.15-1.2c0-.06-.1-.12-.15-.18L91,102.08c-1.18-1.24-4.39-2-7.52-2.36a1.07,1.07,0,0,1-.89-1.67l3.26-4.38a1.34,1.34,0,0,1,1.17-.5l21.13,7.41a2.68,2.68,0,0,1,0-.4V99.07a2.69,2.69,0,0,0-1.23-2.26L97,90.34c-1.41-.85-2.12-2.71-2.47-4.57a2.28,2.28,0,0,1,1.27-2.48l.53-.24a2.27,2.27,0,0,1,3.08,1.29,6.69,6.69,0,0,0,.35.76,2.27,2.27,0,0,0,1.58,1.11l8.76,1.58a2.7,2.7,0,0,0,.49,0h.52a2.42,2.42,0,0,0,.47,0l8.78-1.58a2.25,2.25,0,0,0,1.57-1.11,5.31,5.31,0,0,0,.35-.76,2.27,2.27,0,0,1,3.08-1.29l.53.24a2.28,2.28,0,0,1,1.27,2.48c-.34,1.86-1.06,3.72-2.46,4.57l-9.94,6.47a2.71,2.71,0,0,0-1.22,2.26v1.11a2.69,2.69,0,0,1,0,.4l21.13-7.41a1.34,1.34,0,0,1,1.17.5L139,98.05a1.07,1.07,0,0,1-.88,1.67c-3.14.39-6.34,1.12-7.52,2.36L118,115.37a1.1,1.1,0,0,0-.14.18,1,1,0,0,0,.15,1.2l13,13.5c1.19,1.25,4.22,1.95,7.43,2.39A1.07,1.07,0,0,1,139.27,134.3Z" transform="translate(0.29)" style="stroke-linecap:round;stroke-linejoin:round;stroke-width:1.9604084478468395px;fill:url(#f7d27643-be75-46ab-bb08-b113560f6a6e);stroke:url(#661089a7-79c6-4340-ae4b-43dc203b504d)"/></svg>