<svg height="512" viewBox="0 0 64 64" width="512" xmlns="http://www.w3.org/2000/svg"><path d="m39 28h20a1 1 0 0 0 1-1v-24a1 1 0 0 0 -1-1h-20a1 1 0 0 0 -1 1v24a1 1 0 0 0 1 1zm1-24h18v22h-18z"/><path d="m61 38h-3v-2a1 1 0 0 0 -1-1h-4a1 1 0 0 0 -1 1v2h-2v-7a1 1 0 0 0 -1-1h-4a1 1 0 0 0 -1 1v2h2v-1h2v6h-2v-2a1 1 0 0 0 -1-1h-4a1 1 0 0 0 -1 1v2h-3a1 1 0 0 0 -1 1v6a3 3 0 0 0 3 3h6.847l-1.837 12.858a1 1 0 0 0 .99 1.142h8a1 1 0 0 0 .99-1.142l-1.837-12.858h6.847a3 3 0 0 0 3-3v-6a1 1 0 0 0 -1-1zm-7-1h2v1h-2zm-12 0h2v1h-2zm18 3v2h-22v-2zm-8.153 20h-5.694l1.714-12h2.266zm7.153-14h-20a1 1 0 0 1 -1-1v-1h22v1a1 1 0 0 1 -1 1z"/><path d="m21 40v-8a6.006 6.006 0 0 0 -6-6h-6a6.006 6.006 0 0 0 -6 6v8a1 1 0 0 0 -1 1v4a1 1 0 0 0 1 1v1a7.01 7.01 0 0 0 4.809 6.644l-1.779 7.113a1 1 0 0 0 .97 1.243h10a1 1 0 0 0 .97-1.243l-1.779-7.113a7.01 7.01 0 0 0 4.809-6.644v-1a1 1 0 0 0 1-1v-4a1 1 0 0 0 -1-1zm-17 2h16v2h-16zm1-10a4 4 0 0 1 4-4h6a4 4 0 0 1 4 4v8h-14zm9.219 22 1.5 6h-7.438l1.5-6zm4.781-7a5.006 5.006 0 0 1 -5 5h-4a5.006 5.006 0 0 1 -5-5v-1h14z"/><path d="m7 31h4v2h-4z"/><path d="m21 2h-18a1 1 0 0 0 -1 1v16a1 1 0 0 0 1 1h18a1 1 0 0 0 1-1v-16a1 1 0 0 0 -1-1zm-1 16h-16v-14h16z"/><path d="m31 40.556a3.959 3.959 0 0 0 -2-.556 4 4 0 0 0 -4 4v8h2v-4.556a3.875 3.875 0 0 0 4 0v14.556h2v-60h-2zm-2 5.444a2 2 0 1 1 2-2 2 2 0 0 1 -2 2z"/><path d="m53.707 5.293h2v4h-2z" transform="matrix(.707 -.707 .707 .707 10.866 40.82)"/><path d="m51.586 7.414h2v4h-2z" transform="matrix(.707 -.707 .707 .707 8.743 39.937)"/><path d="m7 16h10a1 1 0 0 0 1-1v-8a1 1 0 0 0 -1-1h-10a1 1 0 0 0 -1 1v8a1 1 0 0 0 1 1zm1-8h8v6h-8z"/></svg>