<svg id="6d9fa47a-f3dc-446a-9b4d-9dd69cb9967f" data-name="Layer 12" xmlns="http://www.w3.org/2000/svg" xmlns:xlink="http://www.w3.org/1999/xlink" viewBox="0 0 69 69"><defs><linearGradient id="c1c46b10-b8f2-4ede-9fe3-45ce35cf771f" x1="469.5" y1="496" x2="538.5" y2="496" gradientUnits="userSpaceOnUse"><stop offset="0" stop-color="#c49a2f"/><stop offset="0.12" stop-color="#b1872d"/><stop offset="0.31" stop-color="#faf394"/><stop offset="0.41" stop-color="#e5d06d"/><stop offset="0.56" stop-color="#c49a2f"/><stop offset="0.59" stop-color="#ceaa41"/><stop offset="0.65" stop-color="#e1ca65"/><stop offset="0.7" stop-color="#efe07f"/><stop offset="0.75" stop-color="#f7ee8f"/><stop offset="0.79" stop-color="#faf394"/><stop offset="0.88" stop-color="#b1872d"/><stop offset="1" stop-color="#c49a2f"/></linearGradient><linearGradient id="09d9f028-1fd5-4e1b-83fb-30185757cd61" x1="482.44" x2="525.56" xlink:href="#c1c46b10-b8f2-4ede-9fe3-45ce35cf771f"/></defs><title>icon_arrow_left</title><path d="M504,461.5A34.5,34.5,0,1,0,538.5,496,34.54,34.54,0,0,0,504,461.5Zm0,66.13A31.63,31.63,0,1,1,535.63,496,31.67,31.67,0,0,1,504,527.63Z" transform="translate(-469.5 -461.5)" style="fill:url(#c1c46b10-b8f2-4ede-9fe3-45ce35cf771f)"/><path d="M524.12,494.56H487.35L500.7,481.2a1.44,1.44,0,0,0-2-2L482.86,495a1.45,1.45,0,0,0,0,2h0l15.81,15.81a1.44,1.44,0,0,0,2-2l-13.35-13.36h36.77a1.44,1.44,0,0,0,0-2.88Z" transform="translate(-469.5 -461.5)" style="fill:url(#09d9f028-1fd5-4e1b-83fb-30185757cd61)"/></svg>