<?xml version="1.0" encoding="utf-8"?>
<!-- Generator: Adobe Illustrator 22.1.0, SVG Export Plug-In . SVG Version: 6.00 Build 0)  -->
<svg version="1.1" xmlns="http://www.w3.org/2000/svg" xmlns:xlink="http://www.w3.org/1999/xlink" x="0px" y="0px"
	 viewBox="0 0 480 480" style="enable-background:new 0 0 480 480;" xml:space="preserve">
<style type="text/css">
	.st0{fill:none;stroke:#000000;stroke-width:16;stroke-linecap:round;stroke-linejoin:round;stroke-miterlimit:10;}
</style>
<g id="Layer_2">
	<line class="st0" x1="177" y1="121" x2="303" y2="121"/>
	<line class="st0" x1="177" y1="331.7" x2="303" y2="331.7"/>
</g>
<g id="Capa_1">
	<g>
		<g>
			<rect x="136" y="184" width="16" height="104"/>
		</g>
	</g>
	<g>
		<g>
			<rect x="328" y="192" width="16" height="104"/>
		</g>
	</g>
	<path d="M479.4,5.2c-0.1-0.2-0.1-0.3-0.2-0.5c-0.4-0.8-0.9-1.6-1.5-2.2c-0.1-0.1-0.3-0.2-0.4-0.3c-0.3-0.2-0.5-0.5-0.8-0.7
		c-0.4-0.3-0.8-0.4-1.2-0.6c-0.1-0.1-0.2-0.1-0.4-0.2c-0.9-0.4-1.8-0.5-2.7-0.6C472.2,0,472.1,0,472,0H8C7.9,0,7.8,0.1,7.7,0.1
		C6.8,0.1,5.9,0.3,5,0.6c-0.1,0-0.2,0.1-0.4,0.2C4.2,1,3.8,1.2,3.5,1.4C3.2,1.6,2.9,1.9,2.6,2.2C2.5,2.3,2.4,2.4,2.2,2.5
		C1.6,3.1,1.1,3.9,0.8,4.7C0.7,4.9,0.6,5,0.6,5.2C0.2,6.1,0,7,0,8v464c0,1,0.2,1.9,0.6,2.8c0.1,0.2,0.1,0.3,0.2,0.5
		c0.4,0.8,0.9,1.6,1.5,2.2c0.1,0.1,0.3,0.2,0.4,0.3c0.3,0.2,0.5,0.5,0.8,0.7c0.3,0.2,0.6,0.3,0.9,0.5c0.3,0.1,0.5,0.3,0.8,0.4
		C6.1,479.8,7,480,8,480h464c1,0,1.9-0.2,2.8-0.6c0.3-0.1,0.5-0.3,0.8-0.4c0.3-0.2,0.6-0.3,0.9-0.5c0.3-0.2,0.6-0.5,0.8-0.7
		c0.1-0.1,0.3-0.2,0.4-0.3c0.6-0.6,1.1-1.4,1.5-2.2c0.1-0.2,0.1-0.3,0.2-0.5c0.3-0.9,0.6-1.8,0.6-2.8V8C480,7,479.8,6.1,479.4,5.2z
		 M16,19.6l152,57.9v325L16,460.4V19.6z M51.5,464l127.4-48.5c3.1-1.2,5.2-4.2,5.2-7.5V72c0-3.3-2-6.3-5.2-7.5L51.5,16h377.1
		L301.2,64.5c-3.1,1.2-5.2,4.2-5.2,7.5v336c0,3.3,2,6.3,5.2,7.5L428.5,464H51.5z M464,460.4l-152-57.9v-325l152-57.9V460.4z"/>
</g>
</svg>
