<svg id="49216f79-5f38-4b63-8bc1-53e4c7b03b52" data-name="Layer 12" xmlns="http://www.w3.org/2000/svg" xmlns:xlink="http://www.w3.org/1999/xlink" viewBox="0 0 69 69"><defs><linearGradient id="723ef71f-f3dc-483c-b5c9-3220f4e0dd6b" x1="469.5" y1="496" x2="538.5" y2="496" gradientTransform="translate(1008 992) rotate(180)" gradientUnits="userSpaceOnUse"><stop offset="0" stop-color="#c49a2f"/><stop offset="0.12" stop-color="#b1872d"/><stop offset="0.31" stop-color="#faf394"/><stop offset="0.41" stop-color="#e5d06d"/><stop offset="0.56" stop-color="#c49a2f"/><stop offset="0.59" stop-color="#ceaa41"/><stop offset="0.65" stop-color="#e1ca65"/><stop offset="0.7" stop-color="#efe07f"/><stop offset="0.75" stop-color="#f7ee8f"/><stop offset="0.79" stop-color="#faf394"/><stop offset="0.88" stop-color="#b1872d"/><stop offset="1" stop-color="#c49a2f"/></linearGradient><linearGradient id="1475b075-7193-4daa-8613-0ba3b1f72e71" x1="482.44" x2="525.56" xlink:href="#723ef71f-f3dc-483c-b5c9-3220f4e0dd6b"/></defs><title>icon_arrow_right</title><path d="M504,530.5A34.5,34.5,0,1,0,469.5,496,34.54,34.54,0,0,0,504,530.5Zm0-66.13A31.63,31.63,0,1,1,472.37,496,31.67,31.67,0,0,1,504,464.37Z" transform="translate(-469.5 -461.5)" style="fill:url(#723ef71f-f3dc-483c-b5c9-3220f4e0dd6b)"/><path d="M483.88,497.44h36.77L507.3,510.8a1.44,1.44,0,0,0,2,2L525.14,497a1.45,1.45,0,0,0,0-2h0l-15.81-15.81a1.44,1.44,0,0,0-2,2l13.35,13.36H483.88a1.44,1.44,0,0,0,0,2.88Z" transform="translate(-469.5 -461.5)" style="fill:url(#1475b075-7193-4daa-8613-0ba3b1f72e71)"/></svg>